#N canvas 952 0 958 966 12;
#X obj 97 682 tabread4~ grainArray;
#X obj 98 636 line~;
#X obj 103 454 pack f f f;
#X msg 97 580 \$1 \, \$2 \$3;
#X obj 111 252 t f f;
#X floatatom 113 210 10 0 0 0 - - -;
#X obj 138 413 +;
#X obj 211 400 * 44.1;
#X floatatom 210 365 5 0 0 0 - - -;
#X text 180 619 Start samples;
#X text 180 636 End samples;
#X text 182 658 Time milliseconds;
#X text 196 214 Start point in samples;
#X text 254 361 grain duration ms;
#X obj 212 322 r grainDuration;
#X obj 414 305 loadbang;
#X obj 414 329 samplerate~;
#X obj 414 353 / 1000;
#X obj 118 53 inlet;
#X obj 100 781 outlet~;
#X obj 122 144 t f b, f 90;
#X obj 749 190 t b b;
#X obj 746 220 del 50;
#X msg 746 244 0;
#X obj 746 268 pack f 50;
#X obj 746 292 line~;
#X msg 818 220 1;
#X obj 99 730 *~, f 96;
#X obj 828 148 r grainDuration;
#X obj 829 179 - 50;
#X connect 0 0 27 0;
#X connect 1 0 0 0;
#X connect 2 0 3 0;
#X connect 3 0 1 0;
#X connect 4 0 2 0;
#X connect 4 1 6 0;
#X connect 5 0 4 0;
#X connect 6 0 2 1;
#X connect 7 0 6 1;
#X connect 8 0 7 0;
#X connect 8 0 2 2;
#X connect 14 0 8 0;
#X connect 15 0 16 0;
#X connect 16 0 17 0;
#X connect 17 0 7 1;
#X connect 18 0 20 0;
#X connect 20 0 5 0;
#X connect 20 1 21 0;
#X connect 21 0 22 0;
#X connect 21 1 26 0;
#X connect 22 0 23 0;
#X connect 23 0 24 0;
#X connect 24 0 25 0;
#X connect 25 0 27 1;
#X connect 26 0 24 0;
#X connect 27 0 19 0;
#X connect 28 0 29 0;
#X connect 29 0 22 1;
