#N canvas -4 24 982 966 12;
#X obj 534 574 array define grainArray;
#X msg 675 749 0 \, 1.41e+007 2000;
#X floatatom 92 466 10 0 0 0 - - -;
#X obj 98 744 dac~;
#X obj 225 768 s grainDuration;
#X floatatom 222 722 5 0 0 0 - - -;
#X obj 95 641 clone grain 16;
#X obj 95 686 *~ 0.5;
#X msg 95 575 next \$1;
#X obj 740 712 random 600000;
#X obj 735 623 tgl 15 0 empty empty empty 17 7 0 10 -262144 -1 -1 0
1;
#X obj 735 643 metro 500;
#X obj 97 286 phasor~;
#X obj 94 409 *~;
#X text 161 286 0-1;
#X text 138 408 0-dur in samples;
#X obj 135 318 receive fileDuration;
#X floatatom 132 349 10 0 0 0 - - -;
#X obj 94 433 snapshot~;
#X obj 314 388 tgl 15 0 empty empty empty 17 7 0 10 -262144 -1 -1 1
1;
#X obj 314 409 metro 125;
#X text 166 571 Target next voice;
#X floatatom 95 157 5 0 0 0 - - -;
#X obj 89 93 receive fileDuration;
#X obj 90 128 expr $f2 / $f1;
#X obj 331 73 loadbang;
#X obj 331 97 samplerate~;
#X obj 428 58 bng 15 250 50 0 empty empty empty 17 7 0 10 -262144 -1
-1;
#X text 224 132 normal speed for this sample;
#X obj 95 242 * 1;
#X obj 123 207 t b f;
#X floatatom 121 181 5 0 0 0 - - -;
#X text 173 180 playback rate (l=normal);
#X text 396 469 grain rate;
#X floatatom 367 363 5 0 0 0 - - -;
#X text 270 720 grain duration;
#X obj 314 433 random 10;
#X obj 314 457 + 50;
#X floatatom 409 434 5 0 0 0 - - -;
#X floatatom 400 491 5 0 0 0 - - -;
#X text 309 476 jitter;
#X text 633 469 Duration in samples;
#X msg 538 350 read -resize Xtal.wav grainArray;
#X obj 541 447 soundfiler;
#X floatatom 541 471 10 0 0 0 - - -;
#X obj 541 494 send fileDuration;
#X msg 562 396 read -resize Hivern.wav grainArray;
#X connect 2 0 8 0;
#X connect 5 0 4 0;
#X connect 6 0 7 0;
#X connect 7 0 3 0;
#X connect 7 0 3 1;
#X connect 8 0 6 0;
#X connect 10 0 11 0;
#X connect 11 0 9 0;
#X connect 12 0 13 0;
#X connect 13 0 18 0;
#X connect 16 0 17 0;
#X connect 17 0 13 1;
#X connect 18 0 2 0;
#X connect 19 0 20 0;
#X connect 20 0 18 0;
#X connect 20 0 36 0;
#X connect 22 0 29 0;
#X connect 23 0 24 0;
#X connect 24 0 22 0;
#X connect 25 0 26 0;
#X connect 26 0 24 1;
#X connect 27 0 26 0;
#X connect 29 0 12 0;
#X connect 30 0 29 0;
#X connect 30 1 29 1;
#X connect 31 0 30 0;
#X connect 34 0 20 1;
#X connect 36 0 37 0;
#X connect 37 0 34 0;
#X connect 38 0 36 1;
#X connect 39 0 37 1;
#X connect 42 0 43 0;
#X connect 43 0 44 0;
#X connect 44 0 45 0;
#X connect 46 0 43 0;
