#N canvas -9 -9 1920 976 12;
#X obj 1342 159 Panic_Button-on_off;
#X obj 828 809 dac~;
#X obj 1116 498 loadbang;
#X msg 1117 540 10;
#X obj 1122 589 hsl 128 15 0 127 0 0 empty empty empty -2 -8 0 10 -262144
-1 -1 6400 1;
#X obj 1119 619 / 100;
#X floatatom 1113 668 6 0 0 0 - - -;
#X obj 963 689 tgl 15 0 empty empty empty 17 7 0 10 -262144 -1 -1 1
1;
#X obj 960 736 metro 100;
#N canvas 0 50 450 250 (subpatch) 0;
#X array Wave 100 float 5;
#A 0 2335.15 2281.36 5495.17 5767.7 5836.47 8289.36 7142.29 5481.29
6238.91 3896.19 1595.17 2457.71 992.602 2999.9 2707.33 2811.94 5880.97
6019.4 5806.48 7849.52 6538.39 4714.16 5315.89 3064.09 1020.06 2088.71
920.026 3050.76 2977.18 3188.85 6131.2 6180.08 5707.59 7352.2 5867.9
3985.36 4466.23 2365.64 598.255 1860.75 996.772 3250.67 3407.3 3657.28
6306.42 6068.44 5434.9 6752.09 5139.15 3226.5 3656.14 1799.63 298.472
1676.25 1163.4 1096.18 3635.19 3860.47 6221.52 5864.74 5045.79 6063.93
4401.02 2547.33 2976.29 1382.73 195.881 1693.92 1400.82 1456.56 3869.58
4011.31 6077.34 5556.92 4589.74 5373.75 3724.8 1979.33 2444.22 1070.91
172.445 1792.08 1680.64 1820.58 4032.85 4066.4 5836.71 5160.92 4032.05
4582.15 2969.31 1374.96 1931.21 878.344 257.338 1929.63 1976.4 2151.72
4141.04 4000.66;
#X coords 0 1 100 -1 200 140 1;
#X restore 1271 495 graph;
#X obj 888 781 tabwrite~ Wave;
#X obj 781 201 hsl 128 15 0 880 0 0 empty empty empty -2 -8 0 10 -262144
-1 -1 0 1;
#X floatatom 781 293 5 0 0 0 - - -;
#X obj 831 677 *~;
#X floatatom 907 394 5 0 0 0 - - -;
#X obj 942 362 hsl 30 15 1 50 0 1 empty empty drive 4 9 1 12 -262131
-1 -1 1400 1;
#X obj 776 135 tgl 15 0 empty empty empty 17 7 0 10 -262144 -1 -1 0
1;
#X obj 834 108 hsl 128 15 0 1000 0 0 empty empty empty -2 -8 0 10 -262144
-1 -1 0 1;
#X obj 821 557 *~;
#X obj 1066 447 hsl 20 15 0 127 0 0 empty empty empty -2 -8 0 10 -262144
-1 -1 1700 1;
#X floatatom 1063 502 5 0 0 0 - - -;
#X obj 1046 350 tgl 15 0 empty empty empty 17 7 0 10 -262144 -1 -1
0 1;
#X obj 1095 318 hsl 128 15 0 1000 0 0 empty empty empty -2 -8 0 10
-262144 -1 -1 0 1;
#X obj 991 491 hsl 20 15 0 20 0 0 empty empty empty -2 -8 0 10 -262144
-1 -1 1300 1;
#N canvas -106 43 737 602 midi_noise 0;
#X obj 457 319 hsl 128 15 0 440 0 0 empty empty empty -2 -8 0 10 -262144
-1 -1 5426 1;
#X obj 158 271 hsl 128 15 0 440 0 0 empty empty empty -2 -8 0 10 -262144
-1 -1 4330 1;
#X obj 513 395 mtof;
#X floatatom 493 349 5 0 0 0 - - -;
#X obj 203 339 mtof;
#X floatatom 157 298 5 0 0 0 - - -;
#X obj 610 566 outlet~;
#X obj 303 531 outlet~;
#X obj 98 127 inlet;
#X obj 175 125 inlet;
#X obj 420 113 inlet;
#X obj 262 482 osc~;
#X obj 602 480 phasor~;
#N canvas 1180 51 450 271 randomizer 0;
#X obj 56 52 inlet;
#X obj 184 49 inlet;
#X obj 329 47 inlet;
#X obj 132 131 metro 500;
#X obj 124 163 bng 15 250 50 0 empty empty empty 17 7 0 10 -262144
-1 -1;
#X obj 121 191 random;
#X text 52 21 Toggle;
#X text 179 17 BPM rate;
#X text 281 28 Randomization rate;
#X obj 122 235 outlet;
#X connect 0 0 3 0;
#X connect 1 0 3 1;
#X connect 2 0 5 1;
#X connect 3 0 4 0;
#X connect 4 0 5 0;
#X connect 5 0 9 0;
#X restore 141 226 pd randomizer;
#X floatatom 230 187 5 0 0 0 - - -;
#X obj 281 108 loadbang;
#X msg 276 155 440;
#N canvas 122 398 450 300 randomizer 0;
#X obj 56 52 inlet;
#X obj 184 49 inlet;
#X obj 329 47 inlet;
#X obj 132 131 metro 500;
#X obj 124 163 bng 15 250 50 0 empty empty empty 17 7 0 10 -262144
-1 -1;
#X obj 121 191 random;
#X text 52 21 Toggle;
#X text 179 17 BPM rate;
#X text 281 28 Randomization rate;
#X obj 122 235 outlet;
#X connect 0 0 3 0;
#X connect 1 0 3 1;
#X connect 2 0 5 1;
#X connect 3 0 4 0;
#X connect 4 0 5 0;
#X connect 5 0 9 0;
#X restore 366 194 pd randomizer;
#X floatatom 454 154 5 0 0 0 - - -;
#X obj 505 75 loadbang;
#X msg 500 122 440;
#N canvas 0 50 450 300 fm_Synthesis 0;
#X obj 74 72 inlet;
#X obj 200 50 inlet;
#X obj 253 94 inlet;
#X obj 107 141 +~;
#X obj 197 118 *~;
#X obj 200 82 osc~;
#X text 28 47 Carrier Wave input;
#X text 161 25 FM Wave Controller;
#X text 251 71 FM Wave Volume;
#X obj 106 221 outlet~;
#N canvas 0 50 450 300 fm_Synthesis 0;
#X obj 74 72 inlet;
#X obj 200 50 inlet;
#X obj 253 94 inlet;
#X obj 107 141 +~;
#X obj 197 118 *~;
#X obj 200 82 osc~;
#X text 28 47 Carrier Wave input;
#X text 161 25 FM Wave Controller;
#X text 251 71 FM Wave Volume;
#X obj 106 221 outlet~;
#X connect 0 0 3 0;
#X connect 1 0 5 0;
#X connect 2 0 4 1;
#X connect 3 0 9 0;
#X connect 4 0 3 1;
#X connect 5 0 4 0;
#X restore 297 318 pd fm_Synthesis;
#X connect 0 0 3 0;
#X connect 1 0 5 0;
#X connect 2 0 4 1;
#X connect 3 0 9 0;
#X connect 4 0 3 1;
#X connect 5 0 4 0;
#X restore 221 409 pd fm_Synthesis;
#X obj 604 155 inlet;
#X obj 657 157 inlet;
#N canvas 0 50 450 300 fm_Synthesis 0;
#X obj 74 72 inlet;
#X obj 200 50 inlet;
#X obj 253 94 inlet;
#X obj 107 141 +~;
#X obj 197 118 *~;
#X obj 200 82 osc~;
#X text 28 47 Carrier Wave input;
#X text 161 25 FM Wave Controller;
#X text 251 71 FM Wave Volume;
#X obj 106 221 outlet~;
#N canvas 0 50 450 300 fm_Synthesis 0;
#X obj 74 72 inlet;
#X obj 200 50 inlet;
#X obj 253 94 inlet;
#X obj 107 141 +~;
#X obj 197 118 *~;
#X obj 200 82 osc~;
#X text 28 47 Carrier Wave input;
#X text 161 25 FM Wave Controller;
#X text 251 71 FM Wave Volume;
#X obj 106 221 outlet~;
#X connect 0 0 3 0;
#X connect 1 0 5 0;
#X connect 2 0 4 1;
#X connect 3 0 9 0;
#X connect 4 0 3 1;
#X connect 5 0 4 0;
#X restore 297 318 pd fm_Synthesis;
#X connect 0 0 3 0;
#X connect 1 0 5 0;
#X connect 2 0 4 1;
#X connect 3 0 9 0;
#X connect 4 0 3 1;
#X connect 5 0 4 0;
#X restore 543 434 pd fm_Synthesis;
#X obj 299 233 inlet;
#X obj 513 255 inlet;
#X connect 0 0 3 0;
#X connect 1 0 5 0;
#X connect 2 0 24 0;
#X connect 3 0 2 0;
#X connect 4 0 21 0;
#X connect 5 0 4 0;
#X connect 8 0 13 0;
#X connect 8 0 17 0;
#X connect 9 0 13 1;
#X connect 10 0 17 1;
#X connect 11 0 7 0;
#X connect 12 0 6 0;
#X connect 13 0 1 0;
#X connect 14 0 13 2;
#X connect 15 0 16 0;
#X connect 16 0 14 0;
#X connect 17 0 0 0;
#X connect 18 0 17 2;
#X connect 19 0 20 0;
#X connect 20 0 18 0;
#X connect 21 0 11 0;
#X connect 22 0 21 1;
#X connect 22 0 24 1;
#X connect 23 0 21 2;
#X connect 23 0 24 2;
#X connect 24 0 12 0;
#X connect 25 0 1 0;
#X connect 26 0 0 0;
#X restore 321 466 pd midi_noise;
#X obj 300 236 tgl 15 0 empty empty empty 17 7 0 10 -262144 -1 -1 0
1;
#X obj 338 230 hsl 128 15 0 127 0 0 empty empty empty -2 -8 0 10 -262144
-1 -1 2700 1;
#X obj 380 252 hsl 128 15 0 127 0 0 empty empty empty -2 -8 0 10 -262144
-1 -1 5500 1;
#N canvas 0 50 450 300 fm_Synthesis 0;
#X obj 74 72 inlet;
#X obj 200 50 inlet;
#X obj 253 94 inlet;
#X obj 107 141 +~;
#X obj 197 118 *~;
#X obj 200 82 osc~;
#X text 28 47 Carrier Wave input;
#X text 161 25 FM Wave Controller;
#X text 251 71 FM Wave Volume;
#X obj 106 221 outlet~;
#X connect 0 0 3 0;
#X connect 1 0 5 0;
#X connect 2 0 4 1;
#X connect 3 0 9 0;
#X connect 4 0 3 1;
#X connect 5 0 4 0;
#X restore 780 343 pd fm_Synthesis;
#X obj 841 286 hsl 20 15 -127 127 0 0 empty empty empty -2 -8 0 10
-262144 -1 -1 950 1;
#X obj 909 292 hsl 20 15 -127 127 0 0 empty empty empty -2 -8 0 10
-262144 -1 -1 200 1;
#X floatatom 911 319 5 0 0 0 - - -;
#X floatatom 848 309 5 0 0 0 - - -;
#N canvas 915 148 450 285 default_slider_value 0;
#X obj 179 42 loadbang;
#X msg 180 81 0;
#X floatatom 180 115 5 0 0 0 - - -;
#X obj 182 154 outlet;
#X connect 0 0 1 0;
#X connect 1 0 2 0;
#X connect 2 0 3 0;
#X restore 872 238 pd default_slider_value;
#X floatatom 838 142 5 0 0 0 - - -;
#X msg 824 250 0;
#X msg 911 264 0;
#N canvas 0 50 450 300 randomizer 0;
#X obj 56 52 inlet;
#X obj 184 49 inlet;
#X obj 329 47 inlet;
#X obj 132 131 metro 500;
#X obj 124 163 bng 15 250 50 0 empty empty empty 17 7 0 10 -262144
-1 -1;
#X obj 121 191 random;
#X text 52 21 Toggle;
#X text 179 17 BPM rate;
#X text 281 28 Randomization rate;
#X obj 122 235 outlet;
#X connect 0 0 3 0;
#X connect 1 0 3 1;
#X connect 2 0 5 1;
#X connect 3 0 4 0;
#X connect 4 0 5 0;
#X connect 5 0 9 0;
#X restore 1050 384 pd randomizer;
#X msg 1250 336 20;
#X floatatom 1204 368 5 0 0 0 - - -;
#X obj 1255 289 loadbang;
#N canvas 0 50 450 300 randomizer 0;
#X obj 56 52 inlet;
#X obj 184 49 inlet;
#X obj 329 47 inlet;
#X obj 132 131 metro 500;
#X obj 124 163 bng 15 250 50 0 empty empty empty 17 7 0 10 -262144
-1 -1;
#X obj 121 191 random;
#X text 52 21 Toggle;
#X text 179 17 BPM rate;
#X text 281 28 Randomization rate;
#X obj 122 235 outlet;
#X connect 0 0 3 0;
#X connect 1 0 3 1;
#X connect 2 0 5 1;
#X connect 3 0 4 0;
#X connect 4 0 5 0;
#X connect 5 0 9 0;
#X restore 780 172 pd randomizer;
#X floatatom 972 165 5 0 0 0 - - -;
#X obj 1023 86 loadbang;
#X msg 1018 133 440;
#X floatatom 1112 340 5 0 0 0 - - -;
#N canvas 0 50 450 300 am_Synthesis 0;
#X obj 131 69 inlet;
#X obj 228 190 inlet;
#X obj 124 234 *~;
#X floatatom 129 117 5 0 0 0 - - -;
#X obj 123 187 osc~;
#X obj 124 258 outlet~;
#X connect 0 0 3 0;
#X connect 1 0 2 1;
#X connect 2 0 5 0;
#X connect 3 0 4 0;
#X connect 4 0 2 0;
#X restore 932 536 pd am_Synthesis;
#X floatatom 327 254 5 0 0 0 - - -;
#X floatatom 412 274 5 0 0 0 - - -;
#X obj 399 373 hsl 20 15 -127 127 0 0 empty empty empty -2 -8 0 10
-262144 -1 -1 950 1;
#X obj 467 379 hsl 20 15 -127 127 0 0 empty empty empty -2 -8 0 10
-262144 -1 -1 950 1;
#X floatatom 469 406 5 0 0 0 - - -;
#X floatatom 406 396 5 0 0 0 - - -;
#N canvas 915 148 450 285 default_slider_value 0;
#X obj 179 42 loadbang;
#X msg 180 81 0;
#X floatatom 180 115 5 0 0 0 - - -;
#X obj 182 154 outlet;
#X connect 0 0 1 0;
#X connect 1 0 2 0;
#X connect 2 0 3 0;
#X restore 404 311 pd default_slider_value;
#X msg 382 337 0;
#X msg 469 351 0;
#N canvas -512 52 1920 976 grainSynthesis 0;
#X obj 534 574 array define grainArray;
#X floatatom 92 466 10 0 0 0 - - -;
#X obj 225 768 s grainDuration;
#X floatatom 465 627 5 0 0 0 - - -;
#X obj 95 641 clone grain 16;
#X obj 676 706 *~ 0.5;
#X msg 95 575 next \$1;
#X obj 97 286 phasor~;
#X obj 94 409 *~;
#X text 161 286 0-1;
#X text 138 408 0-dur in samples;
#X obj 135 318 receive fileDuration;
#X floatatom 132 349 10 0 0 0 - - -;
#X obj 94 433 snapshot~;
#X obj 314 409 metro 125;
#X text 166 571 Target next voice;
#X floatatom 95 157 5 0 0 0 - - -;
#X obj 89 93 receive fileDuration;
#X obj 90 128 expr $f2 / $f1;
#X obj 331 73 loadbang;
#X obj 331 97 samplerate~;
#X obj 470 61 bng 15 250 50 0 empty empty empty 17 7 0 10 -262144 -1
-1;
#X text 224 132 normal speed for this sample;
#X obj 95 242 * 1;
#X obj 123 207 t b f;
#X floatatom 405 183 5 0 0 0 - - -;
#X text 173 180 playback rate (l=normal);
#X text 404 476 grain rate;
#X floatatom 367 363 5 0 0 0 - - -;
#X text 270 720 grain duration;
#X obj 314 433 random 10;
#X obj 314 457 + 50;
#X floatatom 470 559 5 0 0 0 - - -;
#X floatatom 461 584 5 0 0 0 - - -;
#X text 309 476 jitter;
#X obj 541 447 soundfiler;
#X floatatom 541 471 10 0 0 0 - - -;
#X obj 541 494 send fileDuration;
#X obj 1124 26 inlet;
#X obj 154 154 inlet;
#X obj 94 729 outlet~;
#X obj 417 508 inlet;
#X obj 395 423 inlet;
#X obj 221 717 inlet;
#X obj 619 290 inlet;
#X obj 635 364 inlet;
#X obj 311 338 inlet;
#X connect 1 0 6 0;
#X connect 4 0 40 0;
#X connect 6 0 4 0;
#X connect 7 0 8 0;
#X connect 8 0 13 0;
#X connect 11 0 12 0;
#X connect 12 0 8 1;
#X connect 13 0 1 0;
#X connect 14 0 13 0;
#X connect 14 0 30 0;
#X connect 16 0 23 0;
#X connect 17 0 18 0;
#X connect 18 0 16 0;
#X connect 19 0 20 0;
#X connect 20 0 18 1;
#X connect 21 0 20 0;
#X connect 23 0 7 0;
#X connect 24 0 23 0;
#X connect 24 1 23 1;
#X connect 28 0 14 1;
#X connect 30 0 31 0;
#X connect 31 0 28 0;
#X connect 35 0 36 0;
#X connect 36 0 37 0;
#X connect 38 0 21 0;
#X connect 39 0 24 0;
#X connect 41 0 31 1;
#X connect 42 0 30 1;
#X connect 43 0 2 0;
#X connect 44 0 35 0;
#X connect 45 0 35 0;
#X connect 46 0 14 0;
#X restore 218 687 pd grainSynthesis;
#X floatatom 156 581 5 0 0 0 - - -;
#X text 132 548 playback;
#X floatatom 209 625 5 0 0 0 - - -;
#X text 156 607 grain duration;
#X floatatom 243 563 5 0 0 0 - - -;
#X floatatom 268 595 5 0 0 0 - - -;
#X msg 315 519 read -resize Xtal.wav grainArray;
#X msg 335 575 read -resize Hivern.wav grainArray;
#X obj 376 625 bng 15 250 50 0 empty empty empty 17 7 0 10 -262144
-1 -1;
#X obj 213 499 tgl 15 0 empty empty empty 17 7 0 10 -262144 -1 -1 0
1;
#X obj 829 620 *~;
#X obj 1067 545 hsl 20 15 0 127 0 0 empty empty empty -2 -8 0 10 -262144
-1 -1 1300 1;
#X floatatom 1066 600 5 0 0 0 - - -;
#X obj 994 589 hsl 20 15 0 20 0 0 empty empty empty -2 -8 0 10 -262144
-1 -1 0 1;
#N canvas 0 50 450 300 am_Synthesis 0;
#X obj 131 69 inlet;
#X obj 228 190 inlet;
#X obj 124 234 *~;
#X floatatom 129 117 5 0 0 0 - - -;
#X obj 123 187 osc~;
#X obj 124 258 outlet~;
#X connect 0 0 3 0;
#X connect 1 0 2 1;
#X connect 2 0 5 0;
#X connect 3 0 4 0;
#X connect 4 0 2 0;
#X restore 935 634 pd am_Synthesis;
#X obj 579 781 *~;
#X obj 608 564 loadbang;
#X msg 609 606 10;
#X obj 614 655 hsl 128 15 0 500 0 0 empty empty empty -2 -8 0 10 -262144
-1 -1 254 1;
#X obj 611 685 / 100;
#X floatatom 605 734 6 0 0 0 - - -;
#N canvas -24 46 1646 899 noise_floor 0;
#X obj 636 685 *~;
#X obj 634 740 outlet~;
#X obj 221 120 noise~;
#X obj 163 183 *~;
#X obj 267 184 *~;
#X obj 43 56 r noise_floor_bang;
#X obj 127 106 random 2;
#X obj 297 112 random 2;
#X obj 40 105 random 200;
#X obj 378 112 random 200;
#X obj 40 130 / 100;
#X floatatom 44 163 5 0 0 0 - - -;
#X obj 381 140 / 100;
#X floatatom 365 165 5 0 0 0 - - -;
#X obj 163 222 *~;
#X obj 267 221 *~;
#X obj 44 188 random 200;
#X obj 44 213 / 100;
#X floatatom 48 246 5 0 0 0 - - -;
#X obj 362 193 random 200;
#X obj 362 218 / 100;
#X floatatom 366 251 5 0 0 0 - - -;
#X obj 163 246 hip~ 50;
#X obj 163 273 hip~ 50;
#X obj 164 301 hip~ 50;
#X obj 164 326 hip~ 50;
#X obj 161 357 lop~ 250;
#X obj 161 383 lop~ 250;
#X obj 161 409 lop~ 250;
#X obj 161 436 lop~ 250;
#X obj 266 249 hip~ 500;
#X obj 266 276 hip~ 500;
#X obj 267 304 hip~ 500;
#X obj 267 329 hip~ 500;
#X obj 264 360 lop~ 1000;
#X obj 264 386 lop~ 1000;
#X obj 264 412 lop~ 1000;
#X obj 264 439 lop~ 1000;
#X obj 438 344 random 140;
#X obj 438 368 / 2;
#X obj 438 392 - 1;
#X obj 341 341 random 100;
#X floatatom 417 425 5 0 0 0 - - -;
#X obj 697 128 random 1000;
#X obj 853 135 random 1000;
#X obj 1002 134 random 1000;
#X obj 699 165 + 200;
#X obj 853 174 + 200;
#X obj 1001 172 + 200;
#X floatatom 697 197 5 0 0 0 - - -;
#X floatatom 854 206 5 0 0 0 - - -;
#X floatatom 1001 212 5 0 0 0 - - -;
#X obj 608 173 random 1200;
#X obj 758 173 random 1200;
#X obj 904 173 random 1200;
#X obj 699 225 osc~;
#X obj 855 234 osc~;
#X obj 1002 239 osc~;
#X obj 701 263 +~;
#X obj 769 301 +~;
#X obj 734 383 *~;
#X obj 546 344 random 2;
#X obj 550 376 tgl 15 0 empty empty empty 17 7 0 10 -262144 -1 -1 1
1;
#X obj 604 480 *~;
#X obj 182 23 r noise_floor_bang;
#X obj 325 24 r noise_floor_bang;
#X obj 379 60 r noise_floor_bang;
#X obj 445 146 r noise_floor_bang;
#X obj -94 162 r noise_floor_bang;
#X obj 341 307 r noise_floor_bang;
#X obj 485 280 r noise_floor_bang;
#X obj 546 309 r noise_floor_bang;
#X obj 544 103 r noise_floor_bang;
#X obj 697 88 r noise_floor_bang;
#X obj 808 46 r noise_floor_bang;
#X obj 851 71 r noise_floor_bang;
#X obj 943 100 r noise_floor_bang;
#X obj 1083 97 r noise_floor_bang;
#X obj 613 537 *~;
#X obj 793 468 random 200;
#X obj 792 497 / 100;
#X floatatom 677 550 5 0 0 0 - - -;
#X obj 797 431 r noise_floor_bang;
#X obj 690 457 random 100;
#X obj 690 481 / 100;
#X obj 787 575 sel 0;
#X obj 788 546 r noise_floor_bang;
#X msg 763 627 0;
#X obj 769 602 bng 15 250 50 0 empty empty empty 17 7 0 10 -262144
-1 -1;
#X obj 818 606 bng 15 250 50 0 empty empty empty 17 7 0 10 -262144
-1 -1;
#X obj 818 626 random 10;
#X obj 818 650 + 1;
#X floatatom 816 687 5 0 0 0 - - -;
#X obj 919 648 random 100;
#X obj 919 672 / 10;
#X obj 923 609 r noise_floor_bang;
#X obj 818 375 bp~;
#X obj 957 272 r noise_floor_bang;
#X obj 957 296 random 8000;
#X floatatom 938 327 5 0 0 0 - - -;
#X obj 1004 356 r noise_floor_bang;
#X obj 1004 380 random 200;
#X obj 1004 404 / 100;
#X floatatom 1004 428 5 0 0 0 - - -;
#X obj 1383 474 cyclone;
#X obj 811 338 pink~;
#X obj 636 610 overdrive~;
#X connect 0 0 1 0;
#X connect 2 0 3 0;
#X connect 2 0 4 0;
#X connect 3 0 14 0;
#X connect 4 0 15 0;
#X connect 5 0 8 0;
#X connect 6 0 3 1;
#X connect 7 0 4 1;
#X connect 8 0 10 0;
#X connect 9 0 12 0;
#X connect 10 0 11 0;
#X connect 11 0 3 1;
#X connect 12 0 13 0;
#X connect 13 0 4 1;
#X connect 14 0 22 0;
#X connect 15 0 30 0;
#X connect 16 0 17 0;
#X connect 17 0 18 0;
#X connect 18 0 14 1;
#X connect 19 0 20 0;
#X connect 20 0 21 0;
#X connect 21 0 15 1;
#X connect 22 0 23 0;
#X connect 23 0 24 0;
#X connect 24 0 25 0;
#X connect 25 0 26 0;
#X connect 26 0 27 0;
#X connect 27 0 28 0;
#X connect 28 0 29 0;
#X connect 29 0 106 0;
#X connect 30 0 31 0;
#X connect 31 0 32 0;
#X connect 32 0 33 0;
#X connect 33 0 34 0;
#X connect 34 0 35 0;
#X connect 35 0 36 0;
#X connect 36 0 37 0;
#X connect 37 0 106 0;
#X connect 38 0 39 0;
#X connect 39 0 40 0;
#X connect 40 0 42 0;
#X connect 41 0 42 0;
#X connect 42 0 106 0;
#X connect 43 0 46 0;
#X connect 44 0 47 0;
#X connect 45 0 48 0;
#X connect 46 0 49 0;
#X connect 47 0 50 0;
#X connect 48 0 51 0;
#X connect 49 0 55 0;
#X connect 50 0 56 0;
#X connect 51 0 57 0;
#X connect 52 0 49 0;
#X connect 53 0 50 0;
#X connect 54 0 51 0;
#X connect 55 0 58 0;
#X connect 56 0 58 1;
#X connect 57 0 59 1;
#X connect 58 0 59 0;
#X connect 59 0 60 0;
#X connect 60 0 63 0;
#X connect 61 0 62 0;
#X connect 62 0 63 1;
#X connect 63 0 78 0;
#X connect 64 0 6 0;
#X connect 65 0 7 0;
#X connect 66 0 9 0;
#X connect 67 0 19 0;
#X connect 68 0 16 0;
#X connect 69 0 41 0;
#X connect 70 0 38 0;
#X connect 71 0 61 0;
#X connect 72 0 52 0;
#X connect 73 0 43 0;
#X connect 74 0 53 0;
#X connect 75 0 44 0;
#X connect 76 0 54 0;
#X connect 77 0 45 0;
#X connect 78 0 106 0;
#X connect 79 0 80 0;
#X connect 80 0 81 0;
#X connect 81 0 78 1;
#X connect 82 0 79 0;
#X connect 82 0 83 0;
#X connect 83 0 84 0;
#X connect 84 0 81 0;
#X connect 85 0 88 0;
#X connect 85 1 89 0;
#X connect 86 0 85 0;
#X connect 87 0 0 1;
#X connect 88 0 87 0;
#X connect 89 0 90 0;
#X connect 90 0 91 0;
#X connect 91 0 92 0;
#X connect 92 0 0 1;
#X connect 93 0 94 0;
#X connect 94 0 92 0;
#X connect 95 0 93 0;
#X connect 96 0 60 1;
#X connect 97 0 98 0;
#X connect 98 0 99 0;
#X connect 99 0 96 1;
#X connect 100 0 101 0;
#X connect 101 0 102 0;
#X connect 102 0 103 0;
#X connect 103 0 96 2;
#X connect 105 0 96 0;
#X connect 106 0 0 0;
#X restore 674 796 pd noise_floor;
#X obj 638 847 s noise_floor_bang;
#X obj 637 788 bng 15 250 50 0 empty empty empty 17 7 0 10 -262144
-1 -1;
#X obj 788 375 osc~;
#X obj 790 418 overdrive~;
#X obj 324 183 hsl 128 15 0 440 0 0 empty empty empty -2 -8 0 10 -262144
-1 -1 3900 1;
#X obj 527 259 hsl 128 15 0 440 0 0 empty empty empty -2 -8 0 10 -262144
-1 -1 2300 1;
#X floatatom 542 286 5 0 0 0 - - -;
#X floatatom 336 205 5 0 0 0 - - -;
#X connect 2 0 3 0;
#X connect 3 0 4 0;
#X connect 4 0 5 0;
#X connect 5 0 6 0;
#X connect 6 0 13 1;
#X connect 7 0 8 0;
#X connect 8 0 10 0;
#X connect 11 0 12 0;
#X connect 12 0 28 0;
#X connect 13 0 10 0;
#X connect 13 0 1 0;
#X connect 13 0 1 1;
#X connect 14 0 82 1;
#X connect 15 0 14 0;
#X connect 16 0 41 0;
#X connect 17 0 34 0;
#X connect 17 0 41 1;
#X connect 18 0 67 0;
#X connect 19 0 20 0;
#X connect 20 0 46 1;
#X connect 21 0 37 0;
#X connect 22 0 37 1;
#X connect 22 0 45 0;
#X connect 23 0 46 0;
#X connect 24 0 18 0;
#X connect 24 1 18 0;
#X connect 25 0 24 0;
#X connect 26 0 24 1;
#X connect 26 0 47 0;
#X connect 27 0 24 3;
#X connect 27 0 48 0;
#X connect 28 0 81 0;
#X connect 29 0 32 0;
#X connect 29 0 28 1;
#X connect 30 0 31 0;
#X connect 30 0 28 2;
#X connect 33 0 29 0;
#X connect 33 0 30 0;
#X connect 35 0 29 0;
#X connect 36 0 30 0;
#X connect 37 0 23 0;
#X connect 37 0 70 0;
#X connect 38 0 39 0;
#X connect 39 0 37 2;
#X connect 40 0 38 0;
#X connect 41 0 11 0;
#X connect 42 0 41 2;
#X connect 43 0 44 0;
#X connect 44 0 42 0;
#X connect 46 0 18 1;
#X connect 49 0 52 0;
#X connect 50 0 51 0;
#X connect 51 0 24 6;
#X connect 52 0 24 5;
#X connect 53 0 49 0;
#X connect 53 0 50 0;
#X connect 54 0 49 0;
#X connect 55 0 50 0;
#X connect 56 0 72 0;
#X connect 57 0 56 0;
#X connect 59 0 56 1;
#X connect 61 0 56 3;
#X connect 62 0 56 4;
#X connect 63 0 56 5;
#X connect 64 0 56 6;
#X connect 65 0 56 7;
#X connect 66 0 56 2;
#X connect 67 0 13 0;
#X connect 68 0 69 0;
#X connect 69 0 71 1;
#X connect 70 0 71 0;
#X connect 71 0 67 1;
#X connect 72 0 67 0;
#X connect 73 0 74 0;
#X connect 74 0 75 0;
#X connect 75 0 76 0;
#X connect 76 0 77 0;
#X connect 77 0 72 1;
#X connect 78 0 67 0;
#X connect 80 0 79 0;
#X connect 81 0 82 0;
#X connect 82 0 18 0;
#X connect 83 0 24 2;
#X connect 83 0 86 0;
#X connect 84 0 24 4;
#X connect 84 0 85 0;
