#N canvas -9 -9 1920 976 12;
#X obj 1707 127 Panic_Button-on_off;
#X obj 1189 764 dac~;
#X obj 1481 466 loadbang;
#X msg 1482 508 10;
#X obj 1487 557 hsl 128 15 0 127 0 0 empty empty empty -2 -8 0 10 -262144
-1 -1 10900 1;
#X obj 1484 587 / 100;
#X floatatom 1478 636 6 0 0 0 - - -;
#X obj 1326 659 tgl 15 0 empty empty empty 17 7 0 10 -262144 -1 -1
1 1;
#X obj 1325 704 metro 100;
#N canvas 0 50 450 250 (subpatch) 0;
#X array Wave 100 float 5;
#A 0 10.2905 10.3212 10.3456 10.3639 10.3761 10.3823 10.3827 10.3773
10.3663 10.3498 10.328 10.2972 10.2135 10.0888 9.64892 8.26496 6.32474
4.46255 3.15756 3.18156 4.56084 6.07801 6.3959 6.30595 6.22632 5.92691
5.66061 5.40452 5.06931 4.71473 6.50659 8.04527 7.93616 7.94038 8.11122
8.21774 8.30636 8.39923 8.48533 8.56397 8.63669 8.70326 8.76351 8.81749
8.86526 8.90682 8.94218 8.97146 8.99468 9.01188 9.02322 9.02874 9.02851
9.02272 9.01142 8.99474 8.97288 8.94297 8.86285 8.74057 8.32625 6.98051
5.06514 3.21817 1.92404 1.95534 3.32828 4.80722 5.14542 5.12018 5.20972
5.30515 5.38023 5.45376 5.52516 5.59213 5.65519 5.71445 5.76964 5.82083
5.868 5.91101 5.94997 5.98486 6.01556 6.04221 6.06481 6.08327 6.09777
6.10829 6.11479 6.11747 6.11632 6.11133 6.05709 5.69321 5.16357 4.41453
3.18188 2.5448;
#X coords 0 1 100 -1 200 140 1;
#X restore 1636 463 graph;
#X obj 1253 749 tabwrite~ Wave;
#X obj 1146 169 hsl 128 15 0 880 0 0 empty empty empty -2 -8 0 10 -262144
-1 -1 0 1;
#X floatatom 1146 261 5 0 0 0 - - -;
#X obj 1196 645 *~;
#X floatatom 1272 362 5 0 0 0 - - -;
#X obj 1307 330 hsl 30 15 1 50 0 1 empty empty drive 4 9 1 12 -262131
-1 -1 600 1;
#X obj 1141 103 tgl 15 0 empty empty empty 17 7 0 10 -262144 -1 -1
0 1;
#X obj 1199 76 hsl 128 15 0 1000 0 0 empty empty empty -2 -8 0 10 -262144
-1 -1 200 1;
#X obj 1354 409 tgl 15 0 empty empty empty 17 7 0 10 -262144 -1 -1
0 1;
#X obj 1403 377 hsl 128 15 0 1000 0 0 empty empty empty -2 -8 0 10
-262144 -1 -1 100 1;
#N canvas -9 -9 1920 976 midi_noise 1;
#X obj 457 319 hsl 128 15 0 440 0 0 empty empty empty -2 -8 0 10 -262144
-1 -1 0 1;
#X obj 158 271 hsl 128 15 0 440 0 0 empty empty empty -2 -8 0 10 -262144
-1 -1 0 1;
#X obj 513 395 mtof;
#X floatatom 493 349 5 0 0 0 - - -;
#X obj 203 339 mtof;
#X floatatom 157 298 5 0 0 0 - - -;
#X obj 610 566 outlet~;
#X obj 303 531 outlet~;
#X obj 98 127 inlet;
#X obj 175 125 inlet;
#X obj 420 113 inlet;
#X obj 262 482 osc~;
#N canvas 1180 51 450 271 randomizer 0;
#X obj 56 52 inlet;
#X obj 184 49 inlet;
#X obj 329 47 inlet;
#X obj 132 131 metro 500;
#X obj 124 163 bng 15 250 50 0 empty empty empty 17 7 0 10 -262144
-1 -1;
#X obj 121 191 random;
#X text 52 21 Toggle;
#X text 179 17 BPM rate;
#X text 281 28 Randomization rate;
#X obj 122 235 outlet;
#X connect 0 0 3 0;
#X connect 1 0 3 1;
#X connect 2 0 5 1;
#X connect 3 0 4 0;
#X connect 4 0 5 0;
#X connect 5 0 9 0;
#X restore 141 226 pd randomizer;
#X floatatom 230 187 5 0 0 0 - - -;
#X obj 281 108 loadbang;
#X msg 276 155 440;
#N canvas 122 398 450 300 randomizer 0;
#X obj 56 52 inlet;
#X obj 184 49 inlet;
#X obj 329 47 inlet;
#X obj 132 131 metro 500;
#X obj 124 163 bng 15 250 50 0 empty empty empty 17 7 0 10 -262144
-1 -1;
#X obj 121 191 random;
#X text 52 21 Toggle;
#X text 179 17 BPM rate;
#X text 281 28 Randomization rate;
#X obj 122 235 outlet;
#X connect 0 0 3 0;
#X connect 1 0 3 1;
#X connect 2 0 5 1;
#X connect 3 0 4 0;
#X connect 4 0 5 0;
#X connect 5 0 9 0;
#X restore 366 194 pd randomizer;
#X floatatom 454 154 5 0 0 0 - - -;
#X obj 505 75 loadbang;
#X msg 500 122 440;
#N canvas 0 50 450 300 fm_Synthesis 0;
#X obj 74 72 inlet;
#X obj 200 50 inlet;
#X obj 253 94 inlet;
#X obj 107 141 +~;
#X obj 197 118 *~;
#X obj 200 82 osc~;
#X text 28 47 Carrier Wave input;
#X text 161 25 FM Wave Controller;
#X text 251 71 FM Wave Volume;
#X obj 106 221 outlet~;
#N canvas 0 50 450 300 fm_Synthesis 0;
#X obj 74 72 inlet;
#X obj 200 50 inlet;
#X obj 253 94 inlet;
#X obj 107 141 +~;
#X obj 197 118 *~;
#X obj 200 82 osc~;
#X text 28 47 Carrier Wave input;
#X text 161 25 FM Wave Controller;
#X text 251 71 FM Wave Volume;
#X obj 106 221 outlet~;
#X connect 0 0 3 0;
#X connect 1 0 5 0;
#X connect 2 0 4 1;
#X connect 3 0 9 0;
#X connect 4 0 3 1;
#X connect 5 0 4 0;
#X restore 297 318 pd fm_Synthesis;
#X connect 0 0 3 0;
#X connect 1 0 5 0;
#X connect 2 0 4 1;
#X connect 3 0 9 0;
#X connect 4 0 3 1;
#X connect 5 0 4 0;
#X restore 221 409 pd fm_Synthesis;
#X obj 604 155 inlet;
#X obj 657 157 inlet;
#N canvas 0 50 450 300 fm_Synthesis 0;
#X obj 74 72 inlet;
#X obj 200 50 inlet;
#X obj 253 94 inlet;
#X obj 107 141 +~;
#X obj 197 118 *~;
#X obj 200 82 osc~;
#X text 28 47 Carrier Wave input;
#X text 161 25 FM Wave Controller;
#X text 251 71 FM Wave Volume;
#X obj 106 221 outlet~;
#N canvas 0 50 450 300 fm_Synthesis 0;
#X obj 74 72 inlet;
#X obj 200 50 inlet;
#X obj 253 94 inlet;
#X obj 107 141 +~;
#X obj 197 118 *~;
#X obj 200 82 osc~;
#X text 28 47 Carrier Wave input;
#X text 161 25 FM Wave Controller;
#X text 251 71 FM Wave Volume;
#X obj 106 221 outlet~;
#X connect 0 0 3 0;
#X connect 1 0 5 0;
#X connect 2 0 4 1;
#X connect 3 0 9 0;
#X connect 4 0 3 1;
#X connect 5 0 4 0;
#X restore 297 318 pd fm_Synthesis;
#X connect 0 0 3 0;
#X connect 1 0 5 0;
#X connect 2 0 4 1;
#X connect 3 0 9 0;
#X connect 4 0 3 1;
#X connect 5 0 4 0;
#X restore 543 434 pd fm_Synthesis;
#X obj 299 233 inlet;
#X obj 513 255 inlet;
#X obj 602 480 osc~;
#X connect 0 0 3 0;
#X connect 1 0 5 0;
#X connect 2 0 23 0;
#X connect 3 0 2 0;
#X connect 4 0 20 0;
#X connect 5 0 4 0;
#X connect 8 0 12 0;
#X connect 8 0 16 0;
#X connect 9 0 12 1;
#X connect 10 0 16 1;
#X connect 11 0 7 0;
#X connect 12 0 1 0;
#X connect 13 0 12 2;
#X connect 14 0 15 0;
#X connect 15 0 13 0;
#X connect 16 0 0 0;
#X connect 17 0 16 2;
#X connect 18 0 19 0;
#X connect 19 0 17 0;
#X connect 20 0 11 0;
#X connect 21 0 20 1;
#X connect 21 0 23 1;
#X connect 22 0 20 2;
#X connect 22 0 23 2;
#X connect 23 0 26 0;
#X connect 24 0 1 0;
#X connect 25 0 0 0;
#X connect 26 0 6 0;
#X restore 785 347 pd midi_noise;
#X obj 742 57 tgl 15 0 empty empty empty 17 7 0 10 -262144 -1 -1 0
1;
#X obj 802 111 hsl 128 15 0 127 0 0 empty empty empty -2 -8 0 10 -262144
-1 -1 400 1;
#X obj 844 133 hsl 128 15 0 127 0 0 empty empty empty -2 -8 0 10 -262144
-1 -1 0 1;
#N canvas 0 50 450 300 fm_Synthesis 0;
#X obj 74 72 inlet;
#X obj 200 50 inlet;
#X obj 253 94 inlet;
#X obj 107 141 +~;
#X obj 197 118 *~;
#X obj 200 82 osc~;
#X text 28 47 Carrier Wave input;
#X text 161 25 FM Wave Controller;
#X text 251 71 FM Wave Volume;
#X obj 106 221 outlet~;
#X connect 0 0 3 0;
#X connect 1 0 5 0;
#X connect 2 0 4 1;
#X connect 3 0 9 0;
#X connect 4 0 3 1;
#X connect 5 0 4 0;
#X restore 1145 311 pd fm_Synthesis;
#X obj 1206 254 hsl 20 15 -127 127 0 0 empty empty empty -2 -8 0 10
-262144 -1 -1 400 1;
#X obj 1274 260 hsl 20 15 -127 127 0 0 empty empty empty -2 -8 0 10
-262144 -1 -1 1650 1;
#X floatatom 1276 287 5 0 0 0 - - -;
#X floatatom 1213 277 5 0 0 0 - - -;
#N canvas 915 148 450 285 default_slider_value 0;
#X obj 179 42 loadbang;
#X msg 180 81 0;
#X floatatom 180 115 5 0 0 0 - - -;
#X obj 182 154 outlet;
#X connect 0 0 1 0;
#X connect 1 0 2 0;
#X connect 2 0 3 0;
#X restore 1237 206 pd default_slider_value;
#X floatatom 1203 110 5 0 0 0 - - -;
#X msg 1189 218 0;
#X msg 1276 232 0;
#N canvas 0 50 450 300 randomizer 0;
#X obj 56 52 inlet;
#X obj 184 49 inlet;
#X obj 329 47 inlet;
#X obj 132 131 metro 500;
#X obj 124 163 bng 15 250 50 0 empty empty empty 17 7 0 10 -262144
-1 -1;
#X obj 121 191 random;
#X text 52 21 Toggle;
#X text 179 17 BPM rate;
#X text 281 28 Randomization rate;
#X obj 122 235 outlet;
#X connect 0 0 3 0;
#X connect 1 0 3 1;
#X connect 2 0 5 1;
#X connect 3 0 4 0;
#X connect 4 0 5 0;
#X connect 5 0 9 0;
#X restore 1358 443 pd randomizer;
#X msg 1558 395 20;
#X floatatom 1512 427 5 0 0 0 - - -;
#X obj 1563 348 loadbang;
#N canvas 0 50 450 300 randomizer 0;
#X obj 56 52 inlet;
#X obj 184 49 inlet;
#X obj 329 47 inlet;
#X obj 132 131 metro 500;
#X obj 124 163 bng 15 250 50 0 empty empty empty 17 7 0 10 -262144
-1 -1;
#X obj 121 191 random;
#X text 52 21 Toggle;
#X text 179 17 BPM rate;
#X text 281 28 Randomization rate;
#X obj 122 235 outlet;
#X connect 0 0 3 0;
#X connect 1 0 3 1;
#X connect 2 0 5 1;
#X connect 3 0 4 0;
#X connect 4 0 5 0;
#X connect 5 0 9 0;
#X restore 1145 140 pd randomizer;
#X floatatom 1337 133 5 0 0 0 - - -;
#X obj 1388 54 loadbang;
#X msg 1383 101 440;
#X floatatom 1420 399 5 0 0 0 - - -;
#X floatatom 791 135 5 0 0 0 - - -;
#X floatatom 876 155 5 0 0 0 - - -;
#X obj 863 254 hsl 20 15 -127 127 0 0 empty empty empty -2 -8 0 10
-262144 -1 -1 950 1;
#X obj 931 260 hsl 20 15 -127 127 0 0 empty empty empty -2 -8 0 10
-262144 -1 -1 1850 1;
#X floatatom 933 287 5 0 0 0 - - -;
#X floatatom 870 277 5 0 0 0 - - -;
#N canvas 915 148 450 285 default_slider_value 0;
#X obj 179 42 loadbang;
#X msg 180 81 0;
#X floatatom 180 115 5 0 0 0 - - -;
#X obj 182 154 outlet;
#X connect 0 0 1 0;
#X connect 1 0 2 0;
#X connect 2 0 3 0;
#X restore 868 192 pd default_slider_value;
#X msg 846 218 0;
#X msg 933 232 0;
#X obj 1194 588 *~;
#X obj 1432 513 hsl 20 15 0 127 0 0 empty empty empty -2 -8 0 10 -262144
-1 -1 1100 1;
#X floatatom 1431 568 5 0 0 0 - - -;
#X obj 1359 557 hsl 20 15 0 20 0 0 empty empty empty -2 -8 0 10 -262144
-1 -1 190 1;
#N canvas -9 -9 1920 976 am_Synthesis 0;
#X obj 131 69 inlet;
#X obj 228 190 inlet;
#X obj 124 234 *~;
#X floatatom 129 117 5 0 0 0 - - -;
#X obj 123 187 osc~;
#X obj 124 258 outlet~;
#X connect 0 0 3 0;
#X connect 1 0 2 1;
#X connect 2 0 5 0;
#X connect 3 0 4 0;
#X connect 4 0 2 0;
#X restore 1300 602 pd am_Synthesis;
#N canvas -9 -9 1920 976 noise_floor 0;
#X obj 636 685 *~;
#X obj 634 740 outlet~;
#X obj 221 120 noise~;
#X obj 163 183 *~;
#X obj 267 184 *~;
#X obj 43 56 r noise_floor_bang;
#X obj 127 106 random 2;
#X obj 297 112 random 2;
#X obj 40 105 random 200;
#X obj 378 112 random 200;
#X obj 40 130 / 100;
#X floatatom 44 163 5 0 0 0 - - -;
#X obj 381 140 / 100;
#X floatatom 365 165 5 0 0 0 - - -;
#X obj 163 222 *~;
#X obj 267 221 *~;
#X obj 44 188 random 200;
#X obj 44 213 / 100;
#X floatatom 48 246 5 0 0 0 - - -;
#X obj 362 193 random 200;
#X obj 362 218 / 100;
#X floatatom 366 251 5 0 0 0 - - -;
#X obj 163 246 hip~ 50;
#X obj 163 273 hip~ 50;
#X obj 164 301 hip~ 50;
#X obj 164 326 hip~ 50;
#X obj 161 357 lop~ 250;
#X obj 161 383 lop~ 250;
#X obj 161 409 lop~ 250;
#X obj 161 436 lop~ 250;
#X obj 266 249 hip~ 500;
#X obj 266 276 hip~ 500;
#X obj 267 304 hip~ 500;
#X obj 267 329 hip~ 500;
#X obj 264 360 lop~ 1000;
#X obj 264 386 lop~ 1000;
#X obj 264 412 lop~ 1000;
#X obj 264 439 lop~ 1000;
#X obj 438 344 random 140;
#X obj 438 368 / 2;
#X obj 438 392 - 1;
#X obj 341 341 random 100;
#X floatatom 417 425 5 0 0 0 - - -;
#X obj 697 128 random 1000;
#X obj 853 135 random 1000;
#X obj 1002 134 random 1000;
#X obj 699 165 + 200;
#X obj 853 174 + 200;
#X obj 1001 172 + 200;
#X floatatom 697 197 5 0 0 0 - - -;
#X floatatom 854 206 5 0 0 0 - - -;
#X floatatom 1001 212 5 0 0 0 - - -;
#X obj 608 173 random 1200;
#X obj 758 173 random 1200;
#X obj 904 173 random 1200;
#X obj 699 225 osc~;
#X obj 855 234 osc~;
#X obj 1002 239 osc~;
#X obj 701 263 +~;
#X obj 769 301 +~;
#X obj 734 383 *~;
#X obj 546 344 random 2;
#X obj 550 376 tgl 15 0 empty empty empty 17 7 0 10 -262144 -1 -1 1
1;
#X obj 604 480 *~;
#X obj 182 23 r noise_floor_bang;
#X obj 325 24 r noise_floor_bang;
#X obj 379 60 r noise_floor_bang;
#X obj 445 146 r noise_floor_bang;
#X obj -94 162 r noise_floor_bang;
#X obj 341 307 r noise_floor_bang;
#X obj 485 280 r noise_floor_bang;
#X obj 546 309 r noise_floor_bang;
#X obj 544 103 r noise_floor_bang;
#X obj 697 88 r noise_floor_bang;
#X obj 808 46 r noise_floor_bang;
#X obj 851 71 r noise_floor_bang;
#X obj 943 100 r noise_floor_bang;
#X obj 1083 97 r noise_floor_bang;
#X obj 613 537 *~;
#X obj 793 468 random 200;
#X obj 792 497 / 100;
#X floatatom 677 550 5 0 0 0 - - -;
#X obj 797 431 r noise_floor_bang;
#X obj 690 457 random 100;
#X obj 690 481 / 100;
#X obj 787 575 sel 0;
#X obj 788 546 r noise_floor_bang;
#X msg 763 627 0;
#X obj 769 602 bng 15 250 50 0 empty empty empty 17 7 0 10 -262144
-1 -1;
#X obj 818 606 bng 15 250 50 0 empty empty empty 17 7 0 10 -262144
-1 -1;
#X obj 818 626 random 10;
#X obj 818 650 + 1;
#X floatatom 816 687 5 0 0 0 - - -;
#X obj 919 648 random 100;
#X obj 919 672 / 10;
#X obj 923 609 r noise_floor_bang;
#X obj 818 375 bp~;
#X obj 957 272 r noise_floor_bang;
#X obj 957 296 random 8000;
#X floatatom 938 327 5 0 0 0 - - -;
#X obj 1004 356 r noise_floor_bang;
#X obj 1004 380 random 200;
#X obj 1004 404 / 100;
#X floatatom 1004 428 5 0 0 0 - - -;
#X obj 1383 474 cyclone;
#X obj 811 338 pink~;
#X obj 636 610 overdrive~;
#X connect 0 0 1 0;
#X connect 2 0 3 0;
#X connect 2 0 4 0;
#X connect 3 0 14 0;
#X connect 4 0 15 0;
#X connect 5 0 8 0;
#X connect 6 0 3 1;
#X connect 7 0 4 1;
#X connect 8 0 10 0;
#X connect 9 0 12 0;
#X connect 10 0 11 0;
#X connect 11 0 3 1;
#X connect 12 0 13 0;
#X connect 13 0 4 1;
#X connect 14 0 22 0;
#X connect 15 0 30 0;
#X connect 16 0 17 0;
#X connect 17 0 18 0;
#X connect 18 0 14 1;
#X connect 19 0 20 0;
#X connect 20 0 21 0;
#X connect 21 0 15 1;
#X connect 22 0 23 0;
#X connect 23 0 24 0;
#X connect 24 0 25 0;
#X connect 25 0 26 0;
#X connect 26 0 27 0;
#X connect 27 0 28 0;
#X connect 28 0 29 0;
#X connect 29 0 106 0;
#X connect 30 0 31 0;
#X connect 31 0 32 0;
#X connect 32 0 33 0;
#X connect 33 0 34 0;
#X connect 34 0 35 0;
#X connect 35 0 36 0;
#X connect 36 0 37 0;
#X connect 37 0 106 0;
#X connect 38 0 39 0;
#X connect 39 0 40 0;
#X connect 40 0 42 0;
#X connect 41 0 42 0;
#X connect 42 0 106 0;
#X connect 43 0 46 0;
#X connect 44 0 47 0;
#X connect 45 0 48 0;
#X connect 46 0 49 0;
#X connect 47 0 50 0;
#X connect 48 0 51 0;
#X connect 49 0 55 0;
#X connect 50 0 56 0;
#X connect 51 0 57 0;
#X connect 52 0 49 0;
#X connect 53 0 50 0;
#X connect 54 0 51 0;
#X connect 55 0 58 0;
#X connect 56 0 58 1;
#X connect 57 0 59 1;
#X connect 58 0 59 0;
#X connect 59 0 60 0;
#X connect 60 0 63 0;
#X connect 61 0 62 0;
#X connect 62 0 63 1;
#X connect 63 0 78 0;
#X connect 64 0 6 0;
#X connect 65 0 7 0;
#X connect 66 0 9 0;
#X connect 67 0 19 0;
#X connect 68 0 16 0;
#X connect 69 0 41 0;
#X connect 70 0 38 0;
#X connect 71 0 61 0;
#X connect 72 0 52 0;
#X connect 73 0 43 0;
#X connect 74 0 53 0;
#X connect 75 0 44 0;
#X connect 76 0 54 0;
#X connect 77 0 45 0;
#X connect 78 0 106 0;
#X connect 79 0 80 0;
#X connect 80 0 81 0;
#X connect 81 0 78 1;
#X connect 82 0 79 0;
#X connect 82 0 83 0;
#X connect 83 0 84 0;
#X connect 84 0 81 0;
#X connect 85 0 88 0;
#X connect 85 1 89 0;
#X connect 86 0 85 0;
#X connect 87 0 0 1;
#X connect 88 0 87 0;
#X connect 89 0 90 0;
#X connect 90 0 91 0;
#X connect 91 0 92 0;
#X connect 92 0 0 1;
#X connect 93 0 94 0;
#X connect 94 0 92 0;
#X connect 95 0 93 0;
#X connect 96 0 60 1;
#X connect 97 0 98 0;
#X connect 98 0 99 0;
#X connect 99 0 96 1;
#X connect 100 0 101 0;
#X connect 101 0 102 0;
#X connect 102 0 103 0;
#X connect 103 0 96 2;
#X connect 105 0 96 0;
#X connect 106 0 0 0;
#X restore 967 539 pd noise_floor;
#X obj 572 687 s noise_floor_bang;
#X obj 572 615 bng 15 250 50 0 empty empty empty 17 7 0 10 -262144
-1 -1;
#X obj 1153 343 osc~;
#X obj 1155 386 overdrive~;
#X obj 781 51 hsl 128 15 0 440 0 0 empty empty empty -2 -8 0 10 -262144
-1 -1 0 1;
#X obj 991 140 hsl 128 15 0 440 0 0 empty empty empty -2 -8 0 10 -262144
-1 -1 0 1;
#X floatatom 1006 167 5 0 0 0 - - -;
#X floatatom 800 86 5 0 0 0 - - -;
#N canvas -9 -9 1920 976 noiseGenerator 0;
#N canvas 0 185 900 622 oscillators 0;
#X obj 115 126 inlet;
#X obj 275 133 inlet;
#X obj 344 136 inlet;
#X obj 176 128 inlet;
#X obj 217 130 inlet;
#X obj 405 134 inlet;
#X obj 474 137 inlet;
#X obj 136 199 exp;
#X obj 120 162 * 10;
#X obj 570 515 outlet~;
#X obj 306 320 +~;
#X obj 281 287 *~;
#X obj 335 279 exp;
#X obj 303 238 exp;
#X obj 345 242 * 10;
#X obj 303 202 * 10;
#N canvas 0 50 1340 683 mod4osc1 0;
#X obj -3 28 phasor~;
#X obj 31 -26 inlet~;
#X obj 69 854 outlet~;
#X obj 66 392 +~ 1;
#X obj 370 200 inlet;
#X obj 22 193 *~;
#X obj 6 146 clip~ 0 0.5;
#X obj 117 169 clip~ 0.5 1;
#X obj 207 91 -;
#X obj 199 43 t b f;
#X msg 200 69 1;
#X obj 198 -32 inlet;
#X obj 132 76 / 2;
#X obj 131 102 + 0.5;
#X msg 224 207 1;
#X obj 226 183 t b f;
#X text 53 186 m;
#X obj 103 300 *~;
#X obj 238 233 -;
#X obj 244 263 /;
#X msg 287 159 1;
#X obj 289 135 t b f;
#X obj 301 185 -;
#X text 120 130 x1;
#X obj 209 144 *;
#X text 238 146 y1;
#X text 246 281 m2;
#X obj 115 252 -~;
#X text 141 254 b2;
#X text 206 213 ak;
#X text 323 160 gk;
#X obj 194 3 clip 0 0.99;
#X obj 18 507 *~;
#X obj 337 330 * -1;
#X obj 55 480 clip 0 1;
#X obj 51 538 *~;
#X obj 91 517 clip 0 1;
#X obj 82 566 *~;
#X obj 112 546 clip 0 1;
#X obj 99 600 *~;
#X obj 129 580 clip 0 1;
#X text 30 56 9 klasse geometrie...;
#N canvas 4 82 619 465 triangle01 0;
#X obj 262 148 * 2;
#X obj 253 179 - 1;
#X obj 229 201 *;
#X obj 216 90 t f f;
#X obj 193 26 inlet;
#X obj 263 404 outlet;
#X obj 299 114 < 0.5;
#X obj 267 246 -;
#X obj 272 282 + 1;
#X obj 283 322 * 2;
#X connect 0 0 1 0;
#X connect 1 0 2 1;
#X connect 2 0 7 0;
#X connect 3 0 2 0;
#X connect 3 1 6 0;
#X connect 4 0 3 0;
#X connect 6 0 0 0;
#X connect 6 0 7 1;
#X connect 7 0 8 0;
#X connect 8 0 9 0;
#X connect 9 0 5 0;
#X restore 157 413 pd triangle01;
#N canvas 0 50 619 465 triangle01 0;
#X obj 262 148 * 2;
#X obj 254 184 - 1;
#X obj 229 201 *;
#X obj 216 90 t f f;
#X obj 193 26 inlet;
#X obj 263 404 outlet;
#X obj 299 114 < 0.5;
#X obj 267 246 -;
#X obj 272 282 + 1;
#X obj 283 322 * 2;
#X connect 0 0 1 0;
#X connect 1 0 2 1;
#X connect 2 0 7 0;
#X connect 3 0 2 0;
#X connect 3 1 6 0;
#X connect 4 0 3 0;
#X connect 6 0 0 0;
#X connect 6 0 7 1;
#X connect 7 0 8 0;
#X connect 8 0 9 0;
#X connect 9 0 5 0;
#X restore 254 434 pd triangle01;
#X obj 195 376 + 0.5;
#X obj 268 390 + 1;
#X obj 311 397 + 1.5;
#N canvas 4 82 619 465 triangle01 0;
#X obj 262 148 * 2;
#X obj 254 184 - 1;
#X obj 229 201 *;
#X obj 216 90 t f f;
#X obj 193 26 inlet;
#X obj 263 404 outlet;
#X obj 299 114 < 0.5;
#X obj 267 246 -;
#X obj 272 282 + 1;
#X obj 283 322 * 2;
#X connect 0 0 1 0;
#X connect 1 0 2 1;
#X connect 2 0 7 0;
#X connect 3 0 2 0;
#X connect 3 1 6 0;
#X connect 4 0 3 0;
#X connect 6 0 0 0;
#X connect 6 0 7 1;
#X connect 7 0 8 0;
#X connect 8 0 9 0;
#X connect 9 0 5 0;
#X restore 284 465 pd triangle01;
#X obj 327 492 + 2;
#N canvas 0 50 619 465 triangle01 0;
#X obj 262 148 * 2;
#X obj 254 184 - 1;
#X obj 229 201 *;
#X obj 216 90 t f f;
#X obj 193 26 inlet;
#X obj 263 404 outlet;
#X obj 299 114 < 0.5;
#X obj 267 246 -;
#X obj 272 282 + 1;
#X obj 283 322 * 2;
#X connect 0 0 1 0;
#X connect 1 0 2 1;
#X connect 2 0 7 0;
#X connect 3 0 2 0;
#X connect 3 1 6 0;
#X connect 4 0 3 0;
#X connect 6 0 0 0;
#X connect 6 0 7 1;
#X connect 7 0 8 0;
#X connect 8 0 9 0;
#X connect 9 0 5 0;
#X restore 335 515 pd triangle01;
#X obj 364 232 * 1.5;
#X text 86 -24 freq;
#X text 414 199 wave;
#X text 241 -32 geom;
#X obj 66 440 tabread4~ \$0squarewave;
#X obj 122 474 tabread4~ \$0sawwave;
#X obj 173 513 tabread4~ \$0triwave;
#X obj 198 549 tabread4~ \$0sinewave;
#X obj 69 759 *~ 0.125;
#X obj 69 782 rzero~ -1;
#X obj 69 805 rzero~ -1;
#X obj 69 828 rzero~ -1;
#X obj 68 633 *~ 0.2368;
#X obj 69 679 *~ 0.06261;
#X obj 68 656 rpole~ 0.76319;
#X obj 68 702 cpole~ 0.85223 0.20194;
#X obj 67 730 cpole~ 0.85223 -0.2019;
#X text 169 777 filter from pd doc j07.oversampling (modified for 8
times oversampling);
#X obj 318 8 block~ 64 1 8;
#X obj 66 366 *~ 1024;
#X connect 0 0 7 0;
#X connect 0 0 6 0;
#X connect 1 0 0 0;
#X connect 3 0 54 0;
#X connect 3 0 55 0;
#X connect 3 0 56 0;
#X connect 3 0 57 0;
#X connect 4 0 50 0;
#X connect 5 0 69 0;
#X connect 6 0 5 0;
#X connect 7 0 27 0;
#X connect 8 0 5 1;
#X connect 8 0 24 1;
#X connect 9 0 10 0;
#X connect 9 1 8 1;
#X connect 10 0 8 0;
#X connect 11 0 31 0;
#X connect 12 0 13 0;
#X connect 13 0 6 2;
#X connect 13 0 7 1;
#X connect 13 0 21 0;
#X connect 13 0 24 0;
#X connect 13 0 27 1;
#X connect 14 0 18 0;
#X connect 15 0 14 0;
#X connect 15 1 18 1;
#X connect 17 0 69 0;
#X connect 18 0 19 0;
#X connect 19 0 17 1;
#X connect 20 0 22 0;
#X connect 21 0 20 0;
#X connect 21 1 22 1;
#X connect 22 0 19 1;
#X connect 24 0 15 0;
#X connect 27 0 17 0;
#X connect 31 0 9 0;
#X connect 31 0 12 0;
#X connect 32 0 62 0;
#X connect 33 0 44 0;
#X connect 33 0 45 0;
#X connect 33 0 46 0;
#X connect 33 0 48 0;
#X connect 34 0 32 1;
#X connect 35 0 62 0;
#X connect 36 0 35 1;
#X connect 37 0 62 0;
#X connect 38 0 37 1;
#X connect 39 0 62 0;
#X connect 40 0 39 1;
#X connect 42 0 34 0;
#X connect 43 0 36 0;
#X connect 44 0 42 0;
#X connect 45 0 43 0;
#X connect 46 0 47 0;
#X connect 47 0 38 0;
#X connect 48 0 49 0;
#X connect 49 0 40 0;
#X connect 50 0 33 0;
#X connect 54 0 32 0;
#X connect 55 0 35 0;
#X connect 56 0 37 0;
#X connect 57 0 39 0;
#X connect 58 0 59 0;
#X connect 59 0 60 0;
#X connect 60 0 61 0;
#X connect 61 0 2 0;
#X connect 62 0 64 0;
#X connect 63 0 65 0;
#X connect 64 0 63 0;
#X connect 65 0 66 0;
#X connect 65 1 66 1;
#X connect 66 0 58 0;
#X connect 69 0 3 0;
#X restore 155 252 pd mod4osc1;
#N canvas 0 50 1340 683 mod4osc1 0;
#X obj -3 28 phasor~;
#X obj 31 -26 inlet~;
#X obj 69 854 outlet~;
#X obj 66 392 +~ 1;
#X obj 370 200 inlet;
#X obj 22 193 *~;
#X obj 6 146 clip~ 0 0.5;
#X obj 117 169 clip~ 0.5 1;
#X obj 207 91 -;
#X obj 199 43 t b f;
#X msg 200 69 1;
#X obj 198 -32 inlet;
#X obj 132 76 / 2;
#X obj 131 102 + 0.5;
#X msg 224 207 1;
#X obj 226 183 t b f;
#X text 53 186 m;
#X obj 103 300 *~;
#X obj 238 233 -;
#X obj 244 263 /;
#X msg 287 159 1;
#X obj 289 135 t b f;
#X obj 301 185 -;
#X text 120 130 x1;
#X obj 209 144 *;
#X text 238 146 y1;
#X text 246 281 m2;
#X obj 115 252 -~;
#X text 141 254 b2;
#X text 206 213 ak;
#X text 323 160 gk;
#X obj 194 3 clip 0 0.99;
#X obj 18 507 *~;
#X obj 337 330 * -1;
#X obj 55 480 clip 0 1;
#X obj 51 538 *~;
#X obj 91 517 clip 0 1;
#X obj 82 566 *~;
#X obj 112 546 clip 0 1;
#X obj 99 600 *~;
#X obj 129 580 clip 0 1;
#X text 30 56 9 klasse geometrie...;
#N canvas 4 82 619 465 triangle01 0;
#X obj 262 148 * 2;
#X obj 253 179 - 1;
#X obj 229 201 *;
#X obj 216 90 t f f;
#X obj 193 26 inlet;
#X obj 263 404 outlet;
#X obj 299 114 < 0.5;
#X obj 267 246 -;
#X obj 272 282 + 1;
#X obj 283 322 * 2;
#X connect 0 0 1 0;
#X connect 1 0 2 1;
#X connect 2 0 7 0;
#X connect 3 0 2 0;
#X connect 3 1 6 0;
#X connect 4 0 3 0;
#X connect 6 0 0 0;
#X connect 6 0 7 1;
#X connect 7 0 8 0;
#X connect 8 0 9 0;
#X connect 9 0 5 0;
#X restore 157 413 pd triangle01;
#N canvas 0 50 619 465 triangle01 0;
#X obj 262 148 * 2;
#X obj 254 184 - 1;
#X obj 229 201 *;
#X obj 216 90 t f f;
#X obj 193 26 inlet;
#X obj 263 404 outlet;
#X obj 299 114 < 0.5;
#X obj 267 246 -;
#X obj 272 282 + 1;
#X obj 283 322 * 2;
#X connect 0 0 1 0;
#X connect 1 0 2 1;
#X connect 2 0 7 0;
#X connect 3 0 2 0;
#X connect 3 1 6 0;
#X connect 4 0 3 0;
#X connect 6 0 0 0;
#X connect 6 0 7 1;
#X connect 7 0 8 0;
#X connect 8 0 9 0;
#X connect 9 0 5 0;
#X restore 254 434 pd triangle01;
#X obj 195 376 + 0.5;
#X obj 268 390 + 1;
#X obj 311 397 + 1.5;
#N canvas 4 82 619 465 triangle01 0;
#X obj 262 148 * 2;
#X obj 254 184 - 1;
#X obj 229 201 *;
#X obj 216 90 t f f;
#X obj 193 26 inlet;
#X obj 263 404 outlet;
#X obj 299 114 < 0.5;
#X obj 267 246 -;
#X obj 272 282 + 1;
#X obj 283 322 * 2;
#X connect 0 0 1 0;
#X connect 1 0 2 1;
#X connect 2 0 7 0;
#X connect 3 0 2 0;
#X connect 3 1 6 0;
#X connect 4 0 3 0;
#X connect 6 0 0 0;
#X connect 6 0 7 1;
#X connect 7 0 8 0;
#X connect 8 0 9 0;
#X connect 9 0 5 0;
#X restore 284 465 pd triangle01;
#X obj 327 492 + 2;
#N canvas 0 50 619 465 triangle01 0;
#X obj 262 148 * 2;
#X obj 254 184 - 1;
#X obj 229 201 *;
#X obj 216 90 t f f;
#X obj 193 26 inlet;
#X obj 263 404 outlet;
#X obj 299 114 < 0.5;
#X obj 267 246 -;
#X obj 272 282 + 1;
#X obj 283 322 * 2;
#X connect 0 0 1 0;
#X connect 1 0 2 1;
#X connect 2 0 7 0;
#X connect 3 0 2 0;
#X connect 3 1 6 0;
#X connect 4 0 3 0;
#X connect 6 0 0 0;
#X connect 6 0 7 1;
#X connect 7 0 8 0;
#X connect 8 0 9 0;
#X connect 9 0 5 0;
#X restore 335 515 pd triangle01;
#X obj 364 232 * 1.5;
#X text 86 -24 freq;
#X text 414 199 wave;
#X text 241 -32 geom;
#X obj 66 440 tabread4~ \$0squarewave;
#X obj 122 474 tabread4~ \$0sawwave;
#X obj 173 513 tabread4~ \$0triwave;
#X obj 198 549 tabread4~ \$0sinewave;
#X obj 69 759 *~ 0.125;
#X obj 69 782 rzero~ -1;
#X obj 69 805 rzero~ -1;
#X obj 69 828 rzero~ -1;
#X obj 68 633 *~ 0.2368;
#X obj 69 679 *~ 0.06261;
#X obj 68 656 rpole~ 0.76319;
#X obj 68 702 cpole~ 0.85223 0.20194;
#X obj 67 730 cpole~ 0.85223 -0.2019;
#X text 169 777 filter from pd doc j07.oversampling (modified for 8
times oversampling);
#X obj 318 8 block~ 64 1 8;
#X obj 66 366 *~ 1024;
#X connect 0 0 7 0;
#X connect 0 0 6 0;
#X connect 1 0 0 0;
#X connect 3 0 54 0;
#X connect 3 0 55 0;
#X connect 3 0 56 0;
#X connect 3 0 57 0;
#X connect 4 0 50 0;
#X connect 5 0 69 0;
#X connect 6 0 5 0;
#X connect 7 0 27 0;
#X connect 8 0 5 1;
#X connect 8 0 24 1;
#X connect 9 0 10 0;
#X connect 9 1 8 1;
#X connect 10 0 8 0;
#X connect 11 0 31 0;
#X connect 12 0 13 0;
#X connect 13 0 6 2;
#X connect 13 0 7 1;
#X connect 13 0 21 0;
#X connect 13 0 24 0;
#X connect 13 0 27 1;
#X connect 14 0 18 0;
#X connect 15 0 14 0;
#X connect 15 1 18 1;
#X connect 17 0 69 0;
#X connect 18 0 19 0;
#X connect 19 0 17 1;
#X connect 20 0 22 0;
#X connect 21 0 20 0;
#X connect 21 1 22 1;
#X connect 22 0 19 1;
#X connect 24 0 15 0;
#X connect 27 0 17 0;
#X connect 31 0 9 0;
#X connect 31 0 12 0;
#X connect 32 0 62 0;
#X connect 33 0 44 0;
#X connect 33 0 45 0;
#X connect 33 0 46 0;
#X connect 33 0 48 0;
#X connect 34 0 32 1;
#X connect 35 0 62 0;
#X connect 36 0 35 1;
#X connect 37 0 62 0;
#X connect 38 0 37 1;
#X connect 39 0 62 0;
#X connect 40 0 39 1;
#X connect 42 0 34 0;
#X connect 43 0 36 0;
#X connect 44 0 42 0;
#X connect 45 0 43 0;
#X connect 46 0 47 0;
#X connect 47 0 38 0;
#X connect 48 0 49 0;
#X connect 49 0 40 0;
#X connect 50 0 33 0;
#X connect 54 0 32 0;
#X connect 55 0 35 0;
#X connect 56 0 37 0;
#X connect 57 0 39 0;
#X connect 58 0 59 0;
#X connect 59 0 60 0;
#X connect 60 0 61 0;
#X connect 61 0 2 0;
#X connect 62 0 64 0;
#X connect 63 0 65 0;
#X connect 64 0 63 0;
#X connect 65 0 66 0;
#X connect 65 1 66 1;
#X connect 66 0 58 0;
#X connect 69 0 3 0;
#X restore 373 364 pd mod4osc1;
#X connect 0 0 8 0;
#X connect 1 0 15 0;
#X connect 2 0 14 0;
#X connect 3 0 16 1;
#X connect 4 0 16 2;
#X connect 5 0 17 1;
#X connect 6 0 17 2;
#X connect 7 0 16 0;
#X connect 8 0 7 0;
#X connect 10 0 17 0;
#X connect 11 0 10 0;
#X connect 12 0 10 1;
#X connect 13 0 11 1;
#X connect 14 0 12 0;
#X connect 15 0 13 0;
#X connect 16 0 11 0;
#X connect 17 0 9 0;
#X restore 589 436 pd oscillators;
#N canvas 0 185 900 622 oscillators 0;
#X obj 115 126 inlet;
#X obj 275 133 inlet;
#X obj 344 136 inlet;
#X obj 176 128 inlet;
#X obj 217 130 inlet;
#X obj 405 134 inlet;
#X obj 474 137 inlet;
#X obj 136 199 exp;
#X obj 120 162 * 10;
#X obj 570 515 outlet~;
#X obj 306 320 +~;
#X obj 281 287 *~;
#X obj 335 279 exp;
#X obj 303 238 exp;
#X obj 345 242 * 10;
#X obj 303 202 * 10;
#N canvas 0 50 1340 683 mod4osc1 0;
#X obj -3 28 phasor~;
#X obj 31 -26 inlet~;
#X obj 69 854 outlet~;
#X obj 66 392 +~ 1;
#X obj 370 200 inlet;
#X obj 22 193 *~;
#X obj 6 146 clip~ 0 0.5;
#X obj 117 169 clip~ 0.5 1;
#X obj 207 91 -;
#X obj 199 43 t b f;
#X msg 200 69 1;
#X obj 198 -32 inlet;
#X obj 132 76 / 2;
#X obj 131 102 + 0.5;
#X msg 224 207 1;
#X obj 226 183 t b f;
#X text 53 186 m;
#X obj 103 300 *~;
#X obj 238 233 -;
#X obj 244 263 /;
#X msg 287 159 1;
#X obj 289 135 t b f;
#X obj 301 185 -;
#X text 120 130 x1;
#X obj 209 144 *;
#X text 238 146 y1;
#X text 246 281 m2;
#X obj 115 252 -~;
#X text 141 254 b2;
#X text 206 213 ak;
#X text 323 160 gk;
#X obj 194 3 clip 0 0.99;
#X obj 18 507 *~;
#X obj 337 330 * -1;
#X obj 55 480 clip 0 1;
#X obj 51 538 *~;
#X obj 91 517 clip 0 1;
#X obj 82 566 *~;
#X obj 112 546 clip 0 1;
#X obj 99 600 *~;
#X obj 129 580 clip 0 1;
#X text 30 56 9 klasse geometrie...;
#N canvas 4 82 619 465 triangle01 0;
#X obj 262 148 * 2;
#X obj 253 179 - 1;
#X obj 229 201 *;
#X obj 216 90 t f f;
#X obj 193 26 inlet;
#X obj 263 404 outlet;
#X obj 299 114 < 0.5;
#X obj 267 246 -;
#X obj 272 282 + 1;
#X obj 283 322 * 2;
#X connect 0 0 1 0;
#X connect 1 0 2 1;
#X connect 2 0 7 0;
#X connect 3 0 2 0;
#X connect 3 1 6 0;
#X connect 4 0 3 0;
#X connect 6 0 0 0;
#X connect 6 0 7 1;
#X connect 7 0 8 0;
#X connect 8 0 9 0;
#X connect 9 0 5 0;
#X restore 157 413 pd triangle01;
#N canvas 0 50 619 465 triangle01 0;
#X obj 262 148 * 2;
#X obj 254 184 - 1;
#X obj 229 201 *;
#X obj 216 90 t f f;
#X obj 193 26 inlet;
#X obj 263 404 outlet;
#X obj 299 114 < 0.5;
#X obj 267 246 -;
#X obj 272 282 + 1;
#X obj 283 322 * 2;
#X connect 0 0 1 0;
#X connect 1 0 2 1;
#X connect 2 0 7 0;
#X connect 3 0 2 0;
#X connect 3 1 6 0;
#X connect 4 0 3 0;
#X connect 6 0 0 0;
#X connect 6 0 7 1;
#X connect 7 0 8 0;
#X connect 8 0 9 0;
#X connect 9 0 5 0;
#X restore 254 434 pd triangle01;
#X obj 195 376 + 0.5;
#X obj 268 390 + 1;
#X obj 311 397 + 1.5;
#N canvas 4 82 619 465 triangle01 0;
#X obj 262 148 * 2;
#X obj 254 184 - 1;
#X obj 229 201 *;
#X obj 216 90 t f f;
#X obj 193 26 inlet;
#X obj 263 404 outlet;
#X obj 299 114 < 0.5;
#X obj 267 246 -;
#X obj 272 282 + 1;
#X obj 283 322 * 2;
#X connect 0 0 1 0;
#X connect 1 0 2 1;
#X connect 2 0 7 0;
#X connect 3 0 2 0;
#X connect 3 1 6 0;
#X connect 4 0 3 0;
#X connect 6 0 0 0;
#X connect 6 0 7 1;
#X connect 7 0 8 0;
#X connect 8 0 9 0;
#X connect 9 0 5 0;
#X restore 284 465 pd triangle01;
#X obj 327 492 + 2;
#N canvas 0 50 619 465 triangle01 0;
#X obj 262 148 * 2;
#X obj 254 184 - 1;
#X obj 229 201 *;
#X obj 216 90 t f f;
#X obj 193 26 inlet;
#X obj 263 404 outlet;
#X obj 299 114 < 0.5;
#X obj 267 246 -;
#X obj 272 282 + 1;
#X obj 283 322 * 2;
#X connect 0 0 1 0;
#X connect 1 0 2 1;
#X connect 2 0 7 0;
#X connect 3 0 2 0;
#X connect 3 1 6 0;
#X connect 4 0 3 0;
#X connect 6 0 0 0;
#X connect 6 0 7 1;
#X connect 7 0 8 0;
#X connect 8 0 9 0;
#X connect 9 0 5 0;
#X restore 335 515 pd triangle01;
#X obj 364 232 * 1.5;
#X text 86 -24 freq;
#X text 414 199 wave;
#X text 241 -32 geom;
#X obj 66 440 tabread4~ \$0squarewave;
#X obj 122 474 tabread4~ \$0sawwave;
#X obj 173 513 tabread4~ \$0triwave;
#X obj 198 549 tabread4~ \$0sinewave;
#X obj 69 759 *~ 0.125;
#X obj 69 782 rzero~ -1;
#X obj 69 805 rzero~ -1;
#X obj 69 828 rzero~ -1;
#X obj 68 633 *~ 0.2368;
#X obj 69 679 *~ 0.06261;
#X obj 68 656 rpole~ 0.76319;
#X obj 68 702 cpole~ 0.85223 0.20194;
#X obj 67 730 cpole~ 0.85223 -0.2019;
#X text 169 777 filter from pd doc j07.oversampling (modified for 8
times oversampling);
#X obj 318 8 block~ 64 1 8;
#X obj 66 366 *~ 1024;
#X connect 0 0 7 0;
#X connect 0 0 6 0;
#X connect 1 0 0 0;
#X connect 3 0 54 0;
#X connect 3 0 55 0;
#X connect 3 0 56 0;
#X connect 3 0 57 0;
#X connect 4 0 50 0;
#X connect 5 0 69 0;
#X connect 6 0 5 0;
#X connect 7 0 27 0;
#X connect 8 0 5 1;
#X connect 8 0 24 1;
#X connect 9 0 10 0;
#X connect 9 1 8 1;
#X connect 10 0 8 0;
#X connect 11 0 31 0;
#X connect 12 0 13 0;
#X connect 13 0 6 2;
#X connect 13 0 7 1;
#X connect 13 0 21 0;
#X connect 13 0 24 0;
#X connect 13 0 27 1;
#X connect 14 0 18 0;
#X connect 15 0 14 0;
#X connect 15 1 18 1;
#X connect 17 0 69 0;
#X connect 18 0 19 0;
#X connect 19 0 17 1;
#X connect 20 0 22 0;
#X connect 21 0 20 0;
#X connect 21 1 22 1;
#X connect 22 0 19 1;
#X connect 24 0 15 0;
#X connect 27 0 17 0;
#X connect 31 0 9 0;
#X connect 31 0 12 0;
#X connect 32 0 62 0;
#X connect 33 0 44 0;
#X connect 33 0 45 0;
#X connect 33 0 46 0;
#X connect 33 0 48 0;
#X connect 34 0 32 1;
#X connect 35 0 62 0;
#X connect 36 0 35 1;
#X connect 37 0 62 0;
#X connect 38 0 37 1;
#X connect 39 0 62 0;
#X connect 40 0 39 1;
#X connect 42 0 34 0;
#X connect 43 0 36 0;
#X connect 44 0 42 0;
#X connect 45 0 43 0;
#X connect 46 0 47 0;
#X connect 47 0 38 0;
#X connect 48 0 49 0;
#X connect 49 0 40 0;
#X connect 50 0 33 0;
#X connect 54 0 32 0;
#X connect 55 0 35 0;
#X connect 56 0 37 0;
#X connect 57 0 39 0;
#X connect 58 0 59 0;
#X connect 59 0 60 0;
#X connect 60 0 61 0;
#X connect 61 0 2 0;
#X connect 62 0 64 0;
#X connect 63 0 65 0;
#X connect 64 0 63 0;
#X connect 65 0 66 0;
#X connect 65 1 66 1;
#X connect 66 0 58 0;
#X connect 69 0 3 0;
#X restore 155 252 pd mod4osc1;
#N canvas 0 50 1340 683 mod4osc1 0;
#X obj -3 28 phasor~;
#X obj 31 -26 inlet~;
#X obj 69 854 outlet~;
#X obj 66 392 +~ 1;
#X obj 370 200 inlet;
#X obj 22 193 *~;
#X obj 6 146 clip~ 0 0.5;
#X obj 117 169 clip~ 0.5 1;
#X obj 207 91 -;
#X obj 199 43 t b f;
#X msg 200 69 1;
#X obj 198 -32 inlet;
#X obj 132 76 / 2;
#X obj 131 102 + 0.5;
#X msg 224 207 1;
#X obj 226 183 t b f;
#X text 53 186 m;
#X obj 103 300 *~;
#X obj 238 233 -;
#X obj 244 263 /;
#X msg 287 159 1;
#X obj 289 135 t b f;
#X obj 301 185 -;
#X text 120 130 x1;
#X obj 209 144 *;
#X text 238 146 y1;
#X text 246 281 m2;
#X obj 115 252 -~;
#X text 141 254 b2;
#X text 206 213 ak;
#X text 323 160 gk;
#X obj 194 3 clip 0 0.99;
#X obj 18 507 *~;
#X obj 337 330 * -1;
#X obj 55 480 clip 0 1;
#X obj 51 538 *~;
#X obj 91 517 clip 0 1;
#X obj 82 566 *~;
#X obj 112 546 clip 0 1;
#X obj 99 600 *~;
#X obj 129 580 clip 0 1;
#X text 30 56 9 klasse geometrie...;
#N canvas 4 82 619 465 triangle01 0;
#X obj 262 148 * 2;
#X obj 253 179 - 1;
#X obj 229 201 *;
#X obj 216 90 t f f;
#X obj 193 26 inlet;
#X obj 263 404 outlet;
#X obj 299 114 < 0.5;
#X obj 267 246 -;
#X obj 272 282 + 1;
#X obj 283 322 * 2;
#X connect 0 0 1 0;
#X connect 1 0 2 1;
#X connect 2 0 7 0;
#X connect 3 0 2 0;
#X connect 3 1 6 0;
#X connect 4 0 3 0;
#X connect 6 0 0 0;
#X connect 6 0 7 1;
#X connect 7 0 8 0;
#X connect 8 0 9 0;
#X connect 9 0 5 0;
#X restore 157 413 pd triangle01;
#N canvas 0 50 619 465 triangle01 0;
#X obj 262 148 * 2;
#X obj 254 184 - 1;
#X obj 229 201 *;
#X obj 216 90 t f f;
#X obj 193 26 inlet;
#X obj 263 404 outlet;
#X obj 299 114 < 0.5;
#X obj 267 246 -;
#X obj 272 282 + 1;
#X obj 283 322 * 2;
#X connect 0 0 1 0;
#X connect 1 0 2 1;
#X connect 2 0 7 0;
#X connect 3 0 2 0;
#X connect 3 1 6 0;
#X connect 4 0 3 0;
#X connect 6 0 0 0;
#X connect 6 0 7 1;
#X connect 7 0 8 0;
#X connect 8 0 9 0;
#X connect 9 0 5 0;
#X restore 254 434 pd triangle01;
#X obj 195 376 + 0.5;
#X obj 268 390 + 1;
#X obj 311 397 + 1.5;
#N canvas 4 82 619 465 triangle01 0;
#X obj 262 148 * 2;
#X obj 254 184 - 1;
#X obj 229 201 *;
#X obj 216 90 t f f;
#X obj 193 26 inlet;
#X obj 263 404 outlet;
#X obj 299 114 < 0.5;
#X obj 267 246 -;
#X obj 272 282 + 1;
#X obj 283 322 * 2;
#X connect 0 0 1 0;
#X connect 1 0 2 1;
#X connect 2 0 7 0;
#X connect 3 0 2 0;
#X connect 3 1 6 0;
#X connect 4 0 3 0;
#X connect 6 0 0 0;
#X connect 6 0 7 1;
#X connect 7 0 8 0;
#X connect 8 0 9 0;
#X connect 9 0 5 0;
#X restore 284 465 pd triangle01;
#X obj 327 492 + 2;
#N canvas 0 50 619 465 triangle01 0;
#X obj 262 148 * 2;
#X obj 254 184 - 1;
#X obj 229 201 *;
#X obj 216 90 t f f;
#X obj 193 26 inlet;
#X obj 263 404 outlet;
#X obj 299 114 < 0.5;
#X obj 267 246 -;
#X obj 272 282 + 1;
#X obj 283 322 * 2;
#X connect 0 0 1 0;
#X connect 1 0 2 1;
#X connect 2 0 7 0;
#X connect 3 0 2 0;
#X connect 3 1 6 0;
#X connect 4 0 3 0;
#X connect 6 0 0 0;
#X connect 6 0 7 1;
#X connect 7 0 8 0;
#X connect 8 0 9 0;
#X connect 9 0 5 0;
#X restore 335 515 pd triangle01;
#X obj 364 232 * 1.5;
#X text 86 -24 freq;
#X text 414 199 wave;
#X text 241 -32 geom;
#X obj 66 440 tabread4~ \$0squarewave;
#X obj 122 474 tabread4~ \$0sawwave;
#X obj 173 513 tabread4~ \$0triwave;
#X obj 198 549 tabread4~ \$0sinewave;
#X obj 69 759 *~ 0.125;
#X obj 69 782 rzero~ -1;
#X obj 69 805 rzero~ -1;
#X obj 69 828 rzero~ -1;
#X obj 68 633 *~ 0.2368;
#X obj 69 679 *~ 0.06261;
#X obj 68 656 rpole~ 0.76319;
#X obj 68 702 cpole~ 0.85223 0.20194;
#X obj 67 730 cpole~ 0.85223 -0.2019;
#X text 169 777 filter from pd doc j07.oversampling (modified for 8
times oversampling);
#X obj 318 8 block~ 64 1 8;
#X obj 66 366 *~ 1024;
#X connect 0 0 7 0;
#X connect 0 0 6 0;
#X connect 1 0 0 0;
#X connect 3 0 54 0;
#X connect 3 0 55 0;
#X connect 3 0 56 0;
#X connect 3 0 57 0;
#X connect 4 0 50 0;
#X connect 5 0 69 0;
#X connect 6 0 5 0;
#X connect 7 0 27 0;
#X connect 8 0 5 1;
#X connect 8 0 24 1;
#X connect 9 0 10 0;
#X connect 9 1 8 1;
#X connect 10 0 8 0;
#X connect 11 0 31 0;
#X connect 12 0 13 0;
#X connect 13 0 6 2;
#X connect 13 0 7 1;
#X connect 13 0 21 0;
#X connect 13 0 24 0;
#X connect 13 0 27 1;
#X connect 14 0 18 0;
#X connect 15 0 14 0;
#X connect 15 1 18 1;
#X connect 17 0 69 0;
#X connect 18 0 19 0;
#X connect 19 0 17 1;
#X connect 20 0 22 0;
#X connect 21 0 20 0;
#X connect 21 1 22 1;
#X connect 22 0 19 1;
#X connect 24 0 15 0;
#X connect 27 0 17 0;
#X connect 31 0 9 0;
#X connect 31 0 12 0;
#X connect 32 0 62 0;
#X connect 33 0 44 0;
#X connect 33 0 45 0;
#X connect 33 0 46 0;
#X connect 33 0 48 0;
#X connect 34 0 32 1;
#X connect 35 0 62 0;
#X connect 36 0 35 1;
#X connect 37 0 62 0;
#X connect 38 0 37 1;
#X connect 39 0 62 0;
#X connect 40 0 39 1;
#X connect 42 0 34 0;
#X connect 43 0 36 0;
#X connect 44 0 42 0;
#X connect 45 0 43 0;
#X connect 46 0 47 0;
#X connect 47 0 38 0;
#X connect 48 0 49 0;
#X connect 49 0 40 0;
#X connect 50 0 33 0;
#X connect 54 0 32 0;
#X connect 55 0 35 0;
#X connect 56 0 37 0;
#X connect 57 0 39 0;
#X connect 58 0 59 0;
#X connect 59 0 60 0;
#X connect 60 0 61 0;
#X connect 61 0 2 0;
#X connect 62 0 64 0;
#X connect 63 0 65 0;
#X connect 64 0 63 0;
#X connect 65 0 66 0;
#X connect 65 1 66 1;
#X connect 66 0 58 0;
#X connect 69 0 3 0;
#X restore 373 364 pd mod4osc1;
#X connect 0 0 8 0;
#X connect 1 0 15 0;
#X connect 2 0 14 0;
#X connect 3 0 16 1;
#X connect 4 0 16 2;
#X connect 5 0 17 1;
#X connect 6 0 17 2;
#X connect 7 0 16 0;
#X connect 8 0 7 0;
#X connect 10 0 17 0;
#X connect 11 0 10 0;
#X connect 12 0 10 1;
#X connect 13 0 11 1;
#X connect 14 0 12 0;
#X connect 15 0 13 0;
#X connect 16 0 11 0;
#X connect 17 0 9 0;
#X restore 834 442 pd oscillators;
#X obj 757 641 outlet~;
#X obj 755 605 *~;
#X obj 744 555 *~;
#X obj -56 141 pack f f;
#X obj -6 206 line;
#X obj 72 148 pack f f;
#X obj 104 206 line;
#X obj 228 157 pack f f;
#X obj 263 193 line;
#X obj 369 148 pack f f;
#X obj 373 193 line;
#X obj 506 149 pack f f;
#X obj 509 184 line;
#X obj 594 150 pack f f;
#X obj 597 185 line;
#X obj 674 152 pack f f;
#X obj 667 184 line;
#X obj 789 147 pack f f;
#X obj 776 185 line;
#X obj 889 147 pack f f;
#X obj 886 179 line;
#X obj 1000 144 pack f f;
#X obj 1003 179 line;
#X obj 1110 144 pack f f;
#X obj 1113 179 line;
#X obj 1193 143 pack f f;
#X obj 1191 176 line;
#X obj 1281 144 pack f f;
#X obj 1284 179 line;
#X obj 1357 141 pack f f;
#X obj 1354 178 line;
#X obj 1467 27 *;
#X obj 1472 49 * 10000;
#X text 1499 69 glide;
#X obj 1514 141 *~;
#X obj 1295 14 r noise_slider_14;
#X obj 1164 14 r noise_slider_13;
#X obj 1038 15 r noise_slider_12;
#X obj 912 14 r noise_slider_11;
#X obj 785 13 r noise_slider_10;
#X obj 665 13 r noise_slider_9;
#X obj 539 14 r noise_slider_8;
#X obj 419 13 r noise_slider_7;
#X obj 299 13 r noise_slider_6;
#X obj 177 14 r noise_slider_5;
#X obj 57 15 r noise_slider_4;
#X obj -65 16 r noise_slider_3;
#X obj -187 16 r noise_slider_2;
#X obj -309 18 r noise_slider_1;
#X obj 1516 109 r noise_slider_volume;
#X obj 1467 -2 r noise_slider_glider;
#X connect 0 0 4 0;
#X connect 1 0 4 1;
#X connect 3 0 2 0;
#X connect 4 0 3 0;
#X connect 5 0 6 0;
#X connect 6 0 0 0;
#X connect 7 0 8 0;
#X connect 8 0 0 1;
#X connect 9 0 10 0;
#X connect 10 0 0 2;
#X connect 11 0 12 0;
#X connect 12 0 0 3;
#X connect 13 0 14 0;
#X connect 14 0 0 4;
#X connect 15 0 16 0;
#X connect 16 0 0 5;
#X connect 17 0 18 0;
#X connect 18 0 0 6;
#X connect 19 0 20 0;
#X connect 20 0 1 0;
#X connect 21 0 22 0;
#X connect 22 0 1 1;
#X connect 23 0 24 0;
#X connect 24 0 1 2;
#X connect 25 0 26 0;
#X connect 26 0 1 3;
#X connect 27 0 28 0;
#X connect 28 0 1 4;
#X connect 29 0 30 0;
#X connect 30 0 1 5;
#X connect 31 0 32 0;
#X connect 32 0 1 6;
#X connect 33 0 34 0;
#X connect 34 0 31 1;
#X connect 34 0 29 1;
#X connect 34 0 27 1;
#X connect 34 0 25 1;
#X connect 34 0 23 1;
#X connect 34 0 21 1;
#X connect 34 0 19 1;
#X connect 34 0 17 1;
#X connect 34 0 15 1;
#X connect 34 0 13 1;
#X connect 34 0 11 1;
#X connect 34 0 9 1;
#X connect 34 0 7 1;
#X connect 34 0 5 1;
#X connect 36 0 3 1;
#X connect 37 0 31 0;
#X connect 38 0 29 0;
#X connect 39 0 27 0;
#X connect 40 0 25 0;
#X connect 41 0 23 0;
#X connect 42 0 21 0;
#X connect 43 0 19 0;
#X connect 44 0 17 0;
#X connect 45 0 15 0;
#X connect 46 0 13 0;
#X connect 47 0 11 0;
#X connect 48 0 9 0;
#X connect 49 0 7 0;
#X connect 50 0 5 0;
#X connect 51 0 36 0;
#X connect 51 0 36 1;
#X connect 52 0 33 0;
#X connect 52 0 33 1;
#X restore 824 544 pd noiseGenerator;
#X obj 155 236 s noise_slider_1;
#X obj 289 235 s noise_slider_2;
#X obj 158 320 s noise_slider_3;
#X obj 289 321 s noise_slider_4;
#X obj 159 383 s noise_slider_5;
#X obj 295 382 s noise_slider_6;
#X obj 161 454 s noise_slider_7;
#X obj 295 453 s noise_slider_8;
#X obj 160 524 s noise_slider_9;
#X obj 292 526 s noise_slider_10;
#X obj 161 596 s noise_slider_11;
#X obj 303 596 s noise_slider_12;
#X obj 159 667 s noise_slider_13;
#X obj 305 667 s noise_slider_14;
#X obj 155 193 hsl 128 15 0 1 0 0 empty empty empty -2 -8 0 10 -262144
-1 -1 4700 1;
#X obj 304 194 hsl 128 15 0 1 0 0 empty empty empty -2 -8 0 10 -262144
-1 -1 10300 1;
#X obj 162 286 hsl 128 15 0 1 0 0 empty empty empty -2 -8 0 10 -262144
-1 -1 6100 1;
#X obj 311 287 hsl 128 15 0 1 0 0 empty empty empty -2 -8 0 10 -262144
-1 -1 9200 1;
#X obj 164 352 hsl 128 15 0 1 0 0 empty empty empty -2 -8 0 10 -262144
-1 -1 5300 1;
#X obj 313 353 hsl 128 15 0 1 0 0 empty empty empty -2 -8 0 10 -262144
-1 -1 8700 1;
#X obj 166 423 hsl 128 15 0 1 0 0 empty empty empty -2 -8 0 10 -262144
-1 -1 11000 1;
#X obj 315 424 hsl 128 15 0 1 0 0 empty empty empty -2 -8 0 10 -262144
-1 -1 1400 1;
#X obj 167 489 hsl 128 15 0 1 0 0 empty empty empty -2 -8 0 10 -262144
-1 -1 10700 1;
#X obj 316 490 hsl 128 15 0 1 0 0 empty empty empty -2 -8 0 10 -262144
-1 -1 3000 1;
#X obj 165 563 hsl 128 15 0 1 0 0 empty empty empty -2 -8 0 10 -262144
-1 -1 3600 1;
#X obj 312 570 hsl 128 15 0 1 0 0 empty empty empty -2 -8 0 10 -262144
-1 -1 8100 1;
#X obj 165 633 hsl 128 15 0 1 0 0 empty empty empty -2 -8 0 10 -262144
-1 -1 9700 1;
#X obj 314 635 hsl 128 15 0 1 0 0 empty empty empty -2 -8 0 10 -262144
-1 -1 3600 1;
#X obj 147 723 s noise_slider_glider;
#X obj 307 723 s noise_slider_volume;
#X obj 153 695 hsl 128 15 0 1 0 0 empty empty empty -2 -8 0 10 -262144
-1 -1 7100 1;
#X obj 313 694 hsl 128 15 0 1 0 0 empty empty empty -2 -8 0 10 -262144
-1 -1 12700 1;
#X obj 503 494 tgl 15 0 empty empty empty 17 7 0 10 -262144 -1 -1 0
1;
#X obj 563 462 hsl 128 15 0 1000 0 0 empty empty empty -2 -8 0 10 -262144
-1 -1 800 1;
#X floatatom 565 501 5 0 0 0 - - -;
#N canvas -9 -9 1920 976 randomizer 0;
#X obj 56 52 inlet;
#X obj 184 49 inlet;
#X obj 329 47 inlet;
#X obj 132 131 metro 500;
#X obj 124 163 bng 15 250 50 0 empty empty empty 17 7 0 10 -262144
-1 -1;
#X obj 121 191 random;
#X text 52 21 Toggle;
#X text 179 17 BPM rate;
#X text 281 28 Randomization rate;
#X obj 122 235 outlet;
#X connect 0 0 3 0;
#X connect 1 0 3 1;
#X connect 2 0 5 1;
#X connect 3 0 4 0;
#X connect 4 0 5 0;
#X connect 5 0 9 0;
#X restore 507 531 pd randomizer;
#X floatatom 699 524 5 0 0 0 - - -;
#X obj 750 445 loadbang;
#X msg 745 492 440;
#N canvas 361 134 780 696 synthwaves 0;
#X obj 136 81 until;
#X obj 136 109 f;
#X obj 167 111 + 1;
#X obj 141 329 sin;
#X obj 140 306 * 6.28319;
#X obj 131 168 t f f;
#X obj 141 360 tabwrite \$0sinewave;
#X obj 138 27 loadbang;
#X obj 41 531 tabwrite \$0squarewave;
#X obj 49 412 mod 2;
#X obj 59 436 * 2;
#X obj 60 461 - 1;
#X obj 348 489 tabwrite \$0sawwave;
#X obj 68 498 * -1;
#X obj 345 446 - 1;
#X obj 348 467 * -1;
#X obj 528 602 tabwrite \$0triwave;
#X obj 606 360 * 2;
#X obj 603 386 - 1;
#X obj 526 412 *;
#X obj 513 301 t f f;
#X obj 548 464 -;
#X obj 567 489 * 4;
#X obj 566 522 + 3;
#X msg 138 54 1027;
#X obj 168 132 mod 1027;
#X obj 36 558 table \$0squarewave 1027;
#X obj 352 513 table \$0sawwave 1027;
#X obj 529 633 table \$0triwave 1027;
#X obj 126 388 table \$0sinewave 1027;
#X obj 45 388 div 512;
#X obj 340 397 mod 1024;
#X obj 340 422 / 512;
#X obj 523 439 / 1024;
#X obj 600 337 < 512;
#X obj 515 273 mod 1024;
#X obj 401 212 + 256;
#X obj 140 280 / 1024;
#X connect 0 0 1 0;
#X connect 1 0 2 0;
#X connect 1 0 5 0;
#X connect 2 0 25 0;
#X connect 3 0 6 0;
#X connect 4 0 3 0;
#X connect 5 0 30 0;
#X connect 5 0 31 0;
#X connect 5 0 36 0;
#X connect 5 0 37 0;
#X connect 5 1 6 1;
#X connect 5 1 8 1;
#X connect 5 1 12 1;
#X connect 5 1 16 1;
#X connect 7 0 24 0;
#X connect 9 0 10 0;
#X connect 10 0 11 0;
#X connect 11 0 13 0;
#X connect 13 0 8 0;
#X connect 14 0 15 0;
#X connect 15 0 12 0;
#X connect 17 0 18 0;
#X connect 18 0 19 1;
#X connect 19 0 33 0;
#X connect 20 0 19 0;
#X connect 20 1 34 0;
#X connect 21 0 22 0;
#X connect 22 0 23 0;
#X connect 23 0 16 0;
#X connect 24 0 0 0;
#X connect 25 0 1 1;
#X connect 30 0 9 0;
#X connect 31 0 32 0;
#X connect 32 0 14 0;
#X connect 33 0 21 0;
#X connect 34 0 17 0;
#X connect 34 0 21 1;
#X connect 35 0 20 0;
#X connect 36 0 35 0;
#X connect 37 0 4 0;
#X restore 200 118 pd synthwaves;
#X connect 2 0 3 0;
#X connect 3 0 4 0;
#X connect 4 0 5 0;
#X connect 5 0 6 0;
#X connect 6 0 13 1;
#X connect 7 0 8 0;
#X connect 8 0 10 0;
#X connect 11 0 12 0;
#X connect 12 0 24 0;
#X connect 13 0 10 0;
#X connect 13 0 1 0;
#X connect 13 0 1 1;
#X connect 14 0 60 1;
#X connect 15 0 14 0;
#X connect 16 0 37 0;
#X connect 17 0 30 0;
#X connect 17 0 37 1;
#X connect 18 0 33 0;
#X connect 19 0 33 1;
#X connect 19 0 41 0;
#X connect 20 0 51 0;
#X connect 20 1 51 0;
#X connect 21 0 20 0;
#X connect 22 0 20 1;
#X connect 22 0 42 0;
#X connect 23 0 20 3;
#X connect 23 0 43 0;
#X connect 24 0 59 0;
#X connect 25 0 28 0;
#X connect 25 0 24 1;
#X connect 26 0 27 0;
#X connect 26 0 24 2;
#X connect 29 0 25 0;
#X connect 29 0 26 0;
#X connect 31 0 25 0;
#X connect 32 0 26 0;
#X connect 33 0 54 0;
#X connect 34 0 35 0;
#X connect 35 0 33 2;
#X connect 36 0 34 0;
#X connect 37 0 11 0;
#X connect 38 0 37 2;
#X connect 39 0 40 0;
#X connect 40 0 38 0;
#X connect 44 0 47 0;
#X connect 45 0 46 0;
#X connect 46 0 20 6;
#X connect 47 0 20 5;
#X connect 48 0 44 0;
#X connect 48 0 45 0;
#X connect 49 0 44 0;
#X connect 50 0 45 0;
#X connect 51 0 13 0;
#X connect 52 0 53 0;
#X connect 53 0 55 1;
#X connect 54 0 55 0;
#X connect 55 0 51 1;
#X connect 56 0 51 0;
#X connect 58 0 57 0;
#X connect 59 0 60 0;
#X connect 60 0 51 0;
#X connect 61 0 20 2;
#X connect 61 0 64 0;
#X connect 62 0 20 4;
#X connect 62 0 63 0;
#X connect 65 0 51 0;
#X connect 80 0 66 0;
#X connect 81 0 67 0;
#X connect 82 0 68 0;
#X connect 83 0 69 0;
#X connect 84 0 70 0;
#X connect 85 0 71 0;
#X connect 86 0 72 0;
#X connect 87 0 73 0;
#X connect 88 0 74 0;
#X connect 89 0 75 0;
#X connect 90 0 76 0;
#X connect 91 0 77 0;
#X connect 92 0 78 0;
#X connect 93 0 79 0;
#X connect 96 0 94 0;
#X connect 97 0 95 0;
#X connect 98 0 101 0;
#X connect 99 0 100 0;
#X connect 99 0 101 1;
#X connect 101 0 58 0;
#X connect 102 0 101 2;
#X connect 103 0 104 0;
#X connect 104 0 102 0;
